<svg width="120" height="41" viewBox="0 0 120 41" fill="none" xmlns="http://www.w3.org/2000/svg">
<path d="M110.471 0.140755H9.87062C9.50392 0.140755 9.14162 0.140755 8.77589 0.142755C8.46974 0.144755 8.16603 0.150565 7.85694 0.155455C7.18545 0.163357 6.51554 0.222431 5.85304 0.332165C5.19146 0.444288 4.55061 0.655671 3.95216 0.959165C3.35444 1.26523 2.80828 1.66292 2.33351 2.13783C1.85624 2.61139 1.4584 3.15877 1.15529 3.75891C0.851338 4.35786 0.640578 4.99969 0.530288 5.66224C0.418948 6.32394 0.359036 6.99328 0.351088 7.66424C0.341808 7.97084 0.340827 8.27845 0.335938 8.58509V31.6994C0.340827 32.0099 0.341808 32.3107 0.351088 32.6213C0.359038 33.2922 0.418951 33.9615 0.530288 34.6232C0.640273 35.2861 0.851046 35.9283 1.15529 36.5275C1.45826 37.1257 1.85616 37.6708 2.33351 38.1418C2.80648 38.6188 3.35299 39.0167 3.95216 39.3205C4.55061 39.6248 5.19139 39.8374 5.85304 39.9513C6.51566 40.0601 7.18549 40.1192 7.85694 40.1281C8.16603 40.1349 8.46974 40.1388 8.77589 40.1388C9.14161 40.1408 9.50394 40.1408 9.87062 40.1408H110.471C110.83 40.1408 111.195 40.1408 111.555 40.1388C111.859 40.1388 112.172 40.1349 112.477 40.1281C113.147 40.1197 113.815 40.0606 114.477 39.9513C115.14 39.8366 115.783 39.624 116.385 39.3205C116.983 39.0166 117.529 38.6186 118.002 38.1418C118.478 37.669 118.877 37.1242 119.184 36.5275C119.486 35.9278 119.694 35.2857 119.803 34.6232C119.914 33.9614 119.976 33.2922 119.988 32.6213C119.992 32.3107 119.992 32.0099 119.992 31.6994C120 31.3361 120 30.9748 120 30.6056V9.67688C120 9.31067 120 8.94739 119.992 8.58509C119.992 8.27845 119.992 7.97084 119.988 7.6642C119.976 6.99318 119.914 6.32399 119.803 5.6622C119.694 5.00004 119.485 4.35826 119.184 3.75887C118.566 2.55595 117.588 1.57678 116.385 0.959075C115.783 0.656322 115.14 0.444995 114.477 0.332075C113.815 0.221858 113.147 0.162763 112.477 0.155315C112.172 0.150435 111.859 0.144575 111.555 0.142625C111.195 0.140625 110.83 0.140625 110.471 0.140625V0.140755Z" fill="#A6A6A6"/>
<path d="M8.7808 39.2656C8.47612 39.2656 8.1788 39.2617 7.87651 39.2549C7.2503 39.2468 6.62554 39.1922 6.00737 39.0918C5.43096 38.9925 4.87258 38.8079 4.35063 38.5439C3.83348 38.2822 3.36179 37.9389 2.95363 37.5273C2.53957 37.1206 2.19485 36.6489 1.93312 36.1308C1.66851 35.6094 1.48539 35.0505 1.39012 34.4736C1.28725 33.8537 1.23159 33.2269 1.22362 32.5986C1.21728 32.3877 1.20898 31.6855 1.20898 31.6855V8.58496C1.20898 8.58496 1.21782 7.89355 1.22367 7.69042C1.2313 7.06311 1.28664 6.43728 1.3892 5.81836C1.48464 5.23988 1.66791 4.67937 1.93266 4.15625C2.19343 3.63857 2.53624 3.16649 2.9478 2.75831C3.35891 2.34625 3.83211 2.00123 4.35014 1.73583C4.87089 1.47272 5.42822 1.28936 6.00346 1.1919C6.62366 1.09046 7.25059 1.03562 7.87897 1.02784L8.78129 1.01562H111.55L112.463 1.02833C113.086 1.03572 113.707 1.09007 114.321 1.19091C114.902 1.2896 115.466 1.47424 115.992 1.73877C117.03 2.27361 117.875 3.11979 118.407 4.1587C118.668 4.6782 118.848 5.23413 118.942 5.80761C119.046 6.43162 119.104 7.06236 119.116 7.69483C119.119 7.97802 119.119 8.28222 119.119 8.58496C119.127 8.95996 119.127 9.31689 119.127 9.67675V30.6054C119.127 30.9687 119.127 31.3232 119.119 31.6806C119.119 32.0058 119.119 32.3037 119.115 32.6103C119.104 33.2315 119.046 33.851 118.944 34.4638C118.851 35.0449 118.669 35.6081 118.404 36.1338C118.141 36.6462 117.798 37.1139 117.389 37.5195C116.98 37.9333 116.508 38.2786 115.989 38.542C115.464 38.808 114.902 38.9934 114.321 39.0918C113.703 39.1928 113.078 39.2473 112.452 39.2549C112.159 39.2617 111.853 39.2656 111.555 39.2656L110.471 39.2676L8.7808 39.2656Z" fill="black"/>
<path d="M25.104 20.4419C25.1147 19.6073 25.3364 18.7889 25.7484 18.0629C26.1605 17.337 26.7494 16.727 27.4605 16.2899C27.0088 15.6447 26.4128 15.1138 25.72 14.7392C25.0272 14.3647 24.2566 14.1568 23.4694 14.1322C21.7901 13.9559 20.1622 15.137 19.3065 15.137C18.4342 15.137 17.1167 14.1497 15.698 14.1789C14.7803 14.2085 13.8859 14.4754 13.1021 14.9534C12.3182 15.4315 11.6715 16.1045 11.225 16.9068C9.29103 20.2552 10.7336 25.1762 12.5862 27.8828C13.5131 29.2082 14.5964 30.6886 16.0139 30.6361C17.4009 30.5786 17.919 29.7516 19.5933 29.7516C21.252 29.7516 21.7381 30.6361 23.1843 30.6028C24.6726 30.5786 25.6104 29.2715 26.5048 27.9336C27.1707 26.9893 27.6832 25.9455 28.0232 24.8411C27.1585 24.4754 26.4206 23.8632 25.9014 23.0809C25.3823 22.2986 25.105 21.3808 25.104 20.4419Z" fill="white"/>
<path d="M22.3716 12.3519C23.1831 11.3777 23.5829 10.1256 23.4861 8.86133C22.2462 8.99155 21.101 9.58411 20.2785 10.5209C19.8764 10.9786 19.5684 11.511 19.3721 12.0878C19.1759 12.6646 19.0952 13.2744 19.1348 13.8823C19.7549 13.8887 20.3684 13.7543 20.9291 13.4892C21.4898 13.2241 21.983 12.8353 22.3716 12.3519Z" fill="white"/>
<path d="M42.6367 27.2803H37.9033L36.7666 30.6367H34.7617L39.2451 18.2188H41.3281L45.8115 30.6367H43.7724L42.6367 27.2803ZM38.3936 25.7315H42.1455L40.2959 20.2842H40.2442L38.3936 25.7315Z" fill="white"/>
<path d="M55.4932 26.1101C55.4932 28.9236 53.9873 30.7312 51.7149 30.7312C51.1392 30.7613 50.5667 30.6287 50.0629 30.3485C49.5591 30.0684 49.1444 29.6521 48.8662 29.1472H48.8232V33.6315H46.9648V21.5827H48.7637V23.0886H48.7979C49.0888 22.5861 49.5106 22.1719 50.0182 21.8901C50.5258 21.6082 51.1004 21.4693 51.6807 21.488C53.9785 21.488 55.4932 23.3044 55.4932 26.1101ZM53.583 26.1101C53.583 24.2771 52.6358 23.072 51.1905 23.072C49.7705 23.072 48.8155 24.3025 48.8155 26.1101C48.8155 27.9343 49.7705 29.156 51.1905 29.156C52.6358 29.156 53.583 27.9597 53.583 26.1101Z" fill="white"/>
<path d="M65.458 26.1101C65.458 28.9235 63.9522 30.7312 61.6797 30.7312C61.1041 30.7613 60.5316 30.6287 60.0278 30.3485C59.524 30.0684 59.1093 29.652 58.8311 29.1472H58.7881V33.6315H56.9297V21.5827H58.7285V23.0886H58.7627C59.0536 22.5861 59.4754 22.1719 59.983 21.8901C60.4906 21.6082 61.0652 21.4693 61.6455 21.488C63.9434 21.488 65.458 23.3044 65.458 26.1101ZM63.5479 26.1101C63.5479 24.2771 62.6006 23.072 61.1553 23.072C59.7354 23.072 58.7803 24.3024 58.7803 26.1101C58.7803 27.9343 59.7354 29.156 61.1553 29.156C62.6006 29.156 63.5479 27.9597 63.5479 26.1101H63.5479Z" fill="white"/>
<path d="M72.045 27.1768C72.1827 28.4083 73.379 29.2168 75.0137 29.2168C76.5801 29.2168 77.7071 28.4082 77.7071 27.2979C77.7071 26.334 77.0274 25.7569 75.418 25.3613L73.8086 24.9736C71.5284 24.4229 70.4698 23.3564 70.4698 21.626C70.4698 19.4834 72.337 18.0117 74.9883 18.0117C77.6123 18.0117 79.4112 19.4834 79.4717 21.626H77.5957C77.4834 20.3867 76.459 19.6387 74.9619 19.6387C73.4649 19.6387 72.4404 20.3955 72.4404 21.4971C72.4404 22.375 73.0947 22.8916 74.6953 23.2871L76.0635 23.623C78.6113 24.2256 79.6699 25.249 79.6699 27.0654C79.6699 29.3886 77.8193 30.8437 74.876 30.8437C72.1221 30.8437 70.2627 29.4228 70.1426 27.1767L72.045 27.1768Z" fill="white"/>
<path d="M83.6797 19.4404V21.583H85.4014V23.0547H83.6797V28.0459C83.6797 28.8213 84.0244 29.1826 84.7812 29.1826C84.9856 29.1791 85.1897 29.1647 85.3926 29.1396V30.6025C85.0523 30.6661 84.7064 30.6949 84.3603 30.6884C82.5273 30.6884 81.8125 30 81.8125 28.2441V23.0547H80.4961V21.583H81.8125V19.4404H83.6797Z" fill="white"/>
<path d="M86.4004 26.1103C86.4004 23.2617 88.0781 21.4717 90.6943 21.4717C93.3193 21.4717 94.9893 23.2617 94.9893 26.1103C94.9893 28.9668 93.3281 30.749 90.6943 30.749C88.0615 30.749 86.4004 28.9668 86.4004 26.1103ZM93.0957 26.1103C93.0957 24.1562 92.2002 23.0029 90.6943 23.0029C89.1885 23.0029 88.2939 24.165 88.2939 26.1103C88.2939 28.0723 89.1885 29.2168 90.6943 29.2168C92.2002 29.2168 93.0957 28.0723 93.0957 26.1103H93.0957Z" fill="white"/>
<path d="M96.5195 21.5826H98.292V23.1236H98.335C98.4549 22.6424 98.7369 22.217 99.1335 21.9191C99.53 21.6213 100.017 21.469 100.513 21.4879C100.727 21.4872 100.94 21.5104 101.149 21.5572V23.2955C100.879 23.2129 100.597 23.175 100.314 23.1832C100.044 23.1723 99.7753 23.2199 99.5255 23.3228C99.2756 23.4256 99.051 23.5814 98.867 23.7793C98.6831 23.9772 98.5441 24.2125 98.4597 24.4692C98.3752 24.7259 98.3474 24.9978 98.3779 25.2662V30.6363H96.5195L96.5195 21.5826Z" fill="white"/>
<path d="M109.718 27.9775C109.468 29.6211 107.867 30.749 105.819 30.749C103.186 30.749 101.551 28.9844 101.551 26.1533C101.551 23.3135 103.194 21.4717 105.741 21.4717C108.246 21.4717 109.821 23.1924 109.821 25.9375V26.5742H103.427V26.6865C103.397 27.0197 103.439 27.3554 103.549 27.6712C103.659 27.9871 103.835 28.2759 104.066 28.5184C104.296 28.7609 104.575 28.9517 104.885 29.078C105.195 29.2043 105.528 29.2633 105.862 29.251C106.301 29.2921 106.742 29.1904 107.119 28.961C107.496 28.7315 107.788 28.3866 107.953 27.9775L109.718 27.9775ZM103.436 25.2754H107.962C107.979 24.9758 107.933 24.676 107.828 24.3948C107.724 24.1136 107.562 23.857 107.354 23.6413C107.145 23.4255 106.894 23.2552 106.617 23.1409C106.339 23.0267 106.041 22.9711 105.741 22.9775C105.439 22.9757 105.139 23.0339 104.859 23.1486C104.579 23.2634 104.324 23.4324 104.11 23.6461C103.895 23.8597 103.725 24.1137 103.61 24.3933C103.494 24.673 103.435 24.9728 103.436 25.2754V25.2754Z" fill="white"/>
<path d="M38.1631 8.87103C38.5527 8.84307 38.9437 8.90193 39.3078 9.04336C39.6719 9.1848 40.0001 9.40528 40.2687 9.6889C40.5372 9.97253 40.7395 10.3122 40.8609 10.6835C40.9823 11.0548 41.0198 11.4484 40.9707 11.8359C40.9707 13.7421 39.9404 14.8379 38.1631 14.8379H36.0078V8.87103H38.1631ZM36.9346 13.994H38.0596C38.338 14.0107 38.6166 13.965 38.8751 13.8604C39.1337 13.7558 39.3656 13.5948 39.5541 13.3893C39.7426 13.1837 39.8829 12.9387 39.9647 12.6721C40.0466 12.4055 40.068 12.124 40.0273 11.848C40.065 11.5732 40.0415 11.2934 39.9584 11.0288C39.8753 10.7641 39.7346 10.5211 39.5466 10.3172C39.3585 10.1132 39.1277 9.95342 38.8706 9.84919C38.6135 9.74495 38.3365 9.69887 38.0596 9.71424H36.9346V13.994Z" fill="white"/>
<path d="M42.0179 12.5844C41.9895 12.2885 42.0234 11.9899 42.1172 11.7079C42.2111 11.4258 42.3628 11.1665 42.5628 10.9465C42.7627 10.7265 43.0064 10.5507 43.2783 10.4305C43.5501 10.3102 43.8441 10.248 44.1414 10.248C44.4387 10.248 44.7327 10.3102 45.0045 10.4305C45.2764 10.5507 45.5201 10.7265 45.72 10.9465C45.9199 11.1665 46.0717 11.4258 46.1655 11.7079C46.2594 11.9899 46.2932 12.2885 46.2649 12.5844C46.2938 12.8806 46.2603 13.1796 46.1667 13.4622C46.0731 13.7447 45.9215 14.0045 45.7215 14.2249C45.5215 14.4453 45.2776 14.6215 45.0055 14.742C44.7333 14.8625 44.439 14.9248 44.1414 14.9248C43.8438 14.9248 43.5494 14.8625 43.2773 14.742C43.0052 14.6215 42.7613 14.4453 42.5613 14.2249C42.3613 14.0045 42.2096 13.7447 42.1161 13.4622C42.0225 13.1796 41.989 12.8806 42.0179 12.5844ZM45.3509 12.5844C45.3509 11.6084 44.9124 11.0376 44.1429 11.0376C43.3704 11.0376 42.9359 11.6084 42.9359 12.5844C42.9359 13.5683 43.3704 14.1347 44.1429 14.1347C44.9124 14.1347 45.3509 13.5644 45.3509 12.5844H45.3509Z" fill="white"/>
<path d="M51.9102 14.8379H50.9883L50.0576 11.5215H49.9873L49.0606 14.8379H48.1475L46.9062 10.335H47.8076L48.6143 13.771H48.6807L49.6065 10.335H50.459L51.3848 13.771H51.4551L52.2578 10.335H53.1465L51.9102 14.8379Z" fill="white"/>
<path d="M54.1914 10.3345H55.0469V11.0498H55.1133C55.2259 10.7929 55.4159 10.5776 55.6568 10.4337C55.8977 10.2899 56.1774 10.2249 56.457 10.2476C56.6761 10.2311 56.8961 10.2642 57.1007 10.3443C57.3053 10.4244 57.4893 10.5495 57.639 10.7103C57.7886 10.8711 57.9002 11.0636 57.9654 11.2734C58.0306 11.4832 58.0478 11.705 58.0156 11.9224V14.8374H57.127V12.1456C57.127 11.4219 56.8125 11.0621 56.1553 11.0621C56.0065 11.0551 55.858 11.0804 55.72 11.1363C55.5819 11.1921 55.4576 11.2771 55.3554 11.3855C55.2533 11.4939 55.1758 11.6231 55.1283 11.7642C55.0808 11.9053 55.0643 12.0551 55.0801 12.2032V14.8374H54.1914L54.1914 10.3345Z" fill="white"/>
<path d="M59.4297 8.57715H60.3184V14.8379H59.4297V8.57715Z" fill="white"/>
<path d="M61.5549 12.5845C61.5267 12.2886 61.5605 11.99 61.6544 11.7079C61.7483 11.4258 61.9 11.1665 62.1 10.9465C62.3 10.7265 62.5437 10.5507 62.8156 10.4305C63.0874 10.3102 63.3814 10.248 63.6787 10.248C63.976 10.248 64.27 10.3102 64.5419 10.4305C64.8138 10.5507 65.0575 10.7265 65.2574 10.9465C65.4574 11.1665 65.6092 11.4258 65.7031 11.7079C65.7969 11.99 65.8308 12.2886 65.8025 12.5845C65.8313 12.8807 65.7978 13.1797 65.7042 13.4623C65.6106 13.7448 65.4589 14.0046 65.2589 14.225C65.0589 14.4454 64.815 14.6215 64.5428 14.7421C64.2707 14.8626 63.9764 14.9249 63.6787 14.9249C63.3811 14.9249 63.0868 14.8626 62.8146 14.7421C62.5425 14.6215 62.2986 14.4454 62.0986 14.225C61.8985 14.0046 61.7469 13.7448 61.6532 13.4623C61.5596 13.1797 61.5261 12.8807 61.5549 12.5845ZM64.8879 12.5845C64.8879 11.6084 64.4495 11.0376 63.6799 11.0376C62.9075 11.0376 62.4729 11.6084 62.4729 12.5845C62.4729 13.5684 62.9075 14.1348 63.6799 14.1348C64.4495 14.1348 64.8879 13.5645 64.8879 12.5845H64.8879Z" fill="white"/>
<path d="M66.7383 13.5644C66.7383 12.7539 67.3418 12.2866 68.4131 12.2202L69.6328 12.1499V11.7612C69.6328 11.2856 69.3184 11.0171 68.7109 11.0171C68.2148 11.0171 67.8711 11.1992 67.7725 11.5176H66.9121C67.0029 10.7441 67.7305 10.248 68.752 10.248C69.8809 10.248 70.5176 10.81 70.5176 11.7612V14.8379H69.6621V14.2051H69.5918C69.4491 14.4321 69.2487 14.6171 69.0111 14.7413C68.7734 14.8655 68.5071 14.9245 68.2393 14.9121C68.0502 14.9317 67.8592 14.9116 67.6784 14.8529C67.4976 14.7942 67.3312 14.6982 67.1898 14.5713C67.0484 14.4443 66.9351 14.2891 66.8574 14.1157C66.7796 13.9423 66.739 13.7545 66.7383 13.5644ZM69.6328 13.1797V12.8032L68.5332 12.8735C67.9131 12.915 67.6318 13.126 67.6318 13.5229C67.6318 13.9282 67.9834 14.164 68.4668 14.164C68.6085 14.1784 68.7516 14.1641 68.8876 14.122C69.0236 14.0799 69.1497 14.0109 69.2585 13.919C69.3673 13.8272 69.4565 13.7144 69.5208 13.5874C69.5851 13.4604 69.6232 13.3217 69.6328 13.1797Z" fill="white"/>
<path d="M71.6855 12.5845C71.6855 11.1616 72.417 10.2603 73.5547 10.2603C73.8361 10.2473 74.1154 10.3147 74.3599 10.4546C74.6044 10.5945 74.8041 10.8011 74.9355 11.0503H75.002V8.57715H75.8906V14.8379H75.0391V14.1265H74.9688C74.8272 14.3739 74.6205 14.578 74.3713 14.7165C74.122 14.8549 73.8396 14.9226 73.5547 14.9121C72.4092 14.9121 71.6855 14.0108 71.6855 12.5845ZM72.6035 12.5845C72.6035 13.5396 73.0537 14.1143 73.8067 14.1143C74.5557 14.1143 75.0186 13.5313 75.0186 12.5884C75.0186 11.6499 74.5508 11.0586 73.8067 11.0586C73.0586 11.0586 72.6035 11.6372 72.6035 12.5845H72.6035Z" fill="white"/>
<path d="M79.5667 12.5844C79.5384 12.2885 79.5722 11.9899 79.6661 11.7079C79.7599 11.4258 79.9117 11.1665 80.1116 10.9465C80.3116 10.7265 80.5553 10.5507 80.8271 10.4305C81.099 10.3102 81.393 10.248 81.6902 10.248C81.9875 10.248 82.2815 10.3102 82.5533 10.4305C82.8252 10.5507 83.0689 10.7265 83.2688 10.9465C83.4688 11.1665 83.6205 11.4258 83.7144 11.7079C83.8082 11.9899 83.8421 12.2885 83.8138 12.5844C83.8426 12.8806 83.8092 13.1796 83.7156 13.4622C83.622 13.7447 83.4703 14.0045 83.2703 14.2249C83.0703 14.4453 82.8264 14.6215 82.5543 14.742C82.2822 14.8625 81.9878 14.9248 81.6902 14.9248C81.3926 14.9248 81.0983 14.8625 80.8261 14.742C80.554 14.6215 80.3101 14.4453 80.1101 14.2249C79.9101 14.0045 79.7585 13.7447 79.6649 13.4622C79.5713 13.1796 79.5378 12.8806 79.5667 12.5844ZM82.8997 12.5844C82.8997 11.6084 82.4612 11.0376 81.6917 11.0376C80.9192 11.0376 80.4847 11.6084 80.4847 12.5844C80.4847 13.5683 80.9193 14.1347 81.6917 14.1347C82.4612 14.1347 82.8997 13.5644 82.8997 12.5844Z" fill="white"/>
<path d="M85.0059 10.3345H85.8613V11.0498H85.9277C86.0404 10.7929 86.2304 10.5776 86.4713 10.4337C86.7121 10.2899 86.9919 10.2249 87.2715 10.2476C87.4906 10.2311 87.7106 10.2642 87.9152 10.3443C88.1198 10.4244 88.3037 10.5495 88.4534 10.7103C88.6031 10.8711 88.7147 11.0636 88.7799 11.2734C88.8451 11.4832 88.8622 11.705 88.8301 11.9224V14.8374H87.9414V12.1456C87.9414 11.4219 87.627 11.0621 86.9697 11.0621C86.821 11.0551 86.6725 11.0804 86.5344 11.1363C86.3964 11.1921 86.272 11.2771 86.1699 11.3855C86.0678 11.4939 85.9903 11.6231 85.9427 11.7642C85.8952 11.9053 85.8788 12.0551 85.8945 12.2032V14.8374H85.0059V10.3345Z" fill="white"/>
<path d="M93.8525 9.21387V10.3555H94.8281V11.104H93.8525V13.4194C93.8525 13.8911 94.0469 14.0977 94.4893 14.0977C94.6025 14.0973 94.7157 14.0904 94.8281 14.0771V14.8174C94.6685 14.8459 94.5068 14.8611 94.3447 14.8628C93.3564 14.8628 92.9629 14.5151 92.9629 13.647V11.104H92.248V10.3554H92.9629V9.21387H93.8525Z" fill="white"/>
<path d="M96.041 8.57715H96.9219V11.0586H96.9922C97.1103 10.7993 97.3055 10.5827 97.5512 10.4383C97.7969 10.294 98.0812 10.2289 98.3652 10.252C98.5831 10.2401 98.801 10.2765 99.0033 10.3585C99.2056 10.4406 99.3873 10.5662 99.5354 10.7266C99.6835 10.8869 99.7944 11.078 99.8602 11.2861C99.926 11.4942 99.945 11.7143 99.916 11.9307V14.8379H99.0264V12.1499C99.0264 11.4307 98.6914 11.0664 98.0635 11.0664C97.9108 11.0539 97.7571 11.0749 97.6134 11.1279C97.4696 11.181 97.3391 11.2648 97.2311 11.3735C97.1232 11.4823 97.0402 11.6133 96.9882 11.7574C96.9361 11.9016 96.9162 12.0553 96.9297 12.208V14.8379H96.0411L96.041 8.57715Z" fill="white"/>
<path d="M105.097 13.6221C104.977 14.0337 104.715 14.3897 104.358 14.6278C104.002 14.866 103.573 14.9711 103.146 14.9249C102.849 14.9327 102.555 14.8759 102.282 14.7584C102.01 14.6408 101.766 14.4654 101.568 14.2443C101.37 14.0231 101.223 13.7616 101.136 13.4778C101.049 13.1939 101.026 12.8946 101.066 12.6007C101.027 12.3058 101.051 12.0058 101.137 11.7212C101.224 11.4365 101.371 11.1737 101.567 10.9507C101.764 10.7276 102.007 10.5494 102.278 10.4282C102.55 10.307 102.845 10.2456 103.142 10.2481C104.395 10.2481 105.151 11.1041 105.151 12.5181V12.8282H101.971V12.878C101.957 13.0433 101.978 13.2096 102.032 13.3663C102.086 13.5231 102.173 13.6668 102.286 13.7883C102.399 13.9097 102.536 14.0062 102.688 14.0716C102.84 14.137 103.005 14.1699 103.171 14.168C103.383 14.1935 103.598 14.1553 103.789 14.058C103.98 13.9608 104.138 13.8091 104.242 13.6221L105.097 13.6221ZM101.971 12.171H104.246C104.257 12.0198 104.236 11.868 104.185 11.7253C104.134 11.5826 104.054 11.4521 103.95 11.3423C103.845 11.2324 103.719 11.1456 103.579 11.0874C103.439 11.0293 103.289 11.001 103.137 11.0045C102.984 11.0025 102.831 11.0314 102.689 11.0893C102.546 11.1473 102.417 11.2331 102.308 11.3419C102.2 11.4506 102.114 11.5799 102.056 11.7223C101.998 11.8647 101.969 12.0173 101.971 12.171H101.971Z" fill="white"/>
</svg>
