<svg width="167" height="33" viewBox="0 0 167 33" fill="none" xmlns="http://www.w3.org/2000/svg">
<path d="M37.7969 32.1408H50.7146L18.7147 0.140808H5.79688L37.7969 32.1408Z" fill="#CBD5E1"/>
<path d="M25.3516 0.14081L56.1989 30.9882V0.140808H47.8511V9.8799L38.1119 0.140808L25.3516 0.14081Z" fill="#CBD5E1"/>
<path d="M0.388672 1.21216V32.1407H8.73649V22.4016L18.4755 32.1407H31.3173L0.388672 1.21216Z" fill="#CBD5E1"/>
<path d="M72.6582 9.99628L68.0176 24.1408H64.2793L70.6191 7.07831H72.998L72.6582 9.99628ZM76.5137 24.1408L71.8613 9.99628L71.4863 7.07831H73.8887L80.2637 24.1408H76.5137ZM76.3027 17.7892V20.5432H67.291V17.7892H76.3027ZM85.0098 14.2267V24.1408H81.6348V11.4611H84.8105L85.0098 14.2267ZM88.8301 11.3791L88.7715 14.508C88.6074 14.4846 88.4082 14.465 88.1738 14.4494C87.9473 14.426 87.7402 14.4142 87.5527 14.4142C87.0762 14.4142 86.6621 14.4767 86.3105 14.6017C85.9668 14.7189 85.6777 14.8947 85.4434 15.1291C85.2168 15.3635 85.0449 15.6486 84.9277 15.9846C84.8184 16.3205 84.7559 16.7033 84.7402 17.133L84.0605 16.9221C84.0605 16.1017 84.1426 15.3478 84.3066 14.6603C84.4707 13.965 84.709 13.3596 85.0215 12.8439C85.3418 12.3283 85.7324 11.9299 86.1934 11.6486C86.6543 11.3674 87.1816 11.2267 87.7754 11.2267C87.9629 11.2267 88.1543 11.2424 88.3496 11.2736C88.5449 11.2971 88.7051 11.3322 88.8301 11.3791ZM97.2207 11.4611V13.8517H89.8379V11.4611H97.2207ZM91.666 8.33221H95.041V20.3205C95.041 20.6877 95.0879 20.9689 95.1816 21.1642C95.2832 21.3596 95.4316 21.4963 95.627 21.5744C95.8223 21.6447 96.0684 21.6799 96.3652 21.6799C96.5762 21.6799 96.7637 21.6721 96.9277 21.6564C97.0996 21.633 97.2441 21.6096 97.3613 21.5861L97.373 24.0705C97.084 24.1642 96.7715 24.2385 96.4355 24.2932C96.0996 24.3478 95.7285 24.3752 95.3223 24.3752C94.5801 24.3752 93.9316 24.2541 93.377 24.0119C92.8301 23.7619 92.4082 23.3635 92.1113 22.8166C91.8145 22.2697 91.666 21.551 91.666 20.6603V8.33221ZM105.506 20.5783L109.525 7.07831H113.439L107.498 24.1408H104.92L105.506 20.5783ZM101.803 7.07831L105.811 20.5783L106.42 24.1408H103.818L97.9121 7.07831H101.803ZM120.143 24.3752C119.158 24.3752 118.275 24.2189 117.494 23.9064C116.713 23.5861 116.049 23.1447 115.502 22.5822C114.963 22.0197 114.549 21.3674 114.26 20.6252C113.971 19.8752 113.826 19.0783 113.826 18.2346V17.7658C113.826 16.8049 113.963 15.926 114.236 15.1291C114.51 14.3322 114.9 13.6408 115.408 13.0549C115.924 12.4689 116.549 12.0197 117.283 11.7072C118.018 11.3869 118.846 11.2267 119.768 11.2267C120.666 11.2267 121.463 11.3752 122.158 11.6721C122.854 11.9689 123.436 12.3908 123.904 12.9377C124.381 13.4846 124.74 14.1408 124.982 14.9064C125.225 15.6642 125.346 16.508 125.346 17.4377V18.8439H115.268V16.5939H122.029V16.3361C122.029 15.8674 121.943 15.4494 121.771 15.0822C121.607 14.7072 121.357 14.4103 121.021 14.1916C120.686 13.9728 120.256 13.8635 119.732 13.8635C119.287 13.8635 118.904 13.9611 118.584 14.1564C118.264 14.3517 118.002 14.6252 117.799 14.9767C117.604 15.3283 117.455 15.7424 117.354 16.2189C117.26 16.6877 117.213 17.2033 117.213 17.7658V18.2346C117.213 18.7424 117.283 19.2111 117.424 19.6408C117.572 20.0705 117.779 20.4416 118.045 20.7541C118.318 21.0666 118.646 21.3088 119.029 21.4807C119.42 21.6525 119.861 21.7385 120.354 21.7385C120.963 21.7385 121.529 21.6213 122.053 21.3869C122.584 21.1447 123.041 20.7814 123.424 20.2971L125.064 22.0783C124.799 22.4611 124.436 22.8283 123.975 23.1799C123.521 23.5314 122.975 23.8205 122.334 24.0471C121.693 24.2658 120.963 24.3752 120.143 24.3752ZM130.572 14.1682V24.1408H127.197V11.4611H130.361L130.572 14.1682ZM130.08 17.3557H129.166C129.166 16.4182 129.287 15.5744 129.529 14.8244C129.771 14.0666 130.111 13.4221 130.549 12.8908C130.986 12.3517 131.506 11.9416 132.107 11.6603C132.717 11.3713 133.396 11.2267 134.146 11.2267C134.74 11.2267 135.283 11.3127 135.775 11.4846C136.268 11.6564 136.689 11.9299 137.041 12.3049C137.4 12.6799 137.674 13.176 137.861 13.7932C138.057 14.4103 138.154 15.1642 138.154 16.0549V24.1408H134.756V16.0432C134.756 15.4807 134.678 15.0432 134.521 14.7307C134.365 14.4182 134.135 14.1994 133.83 14.0744C133.533 13.9416 133.166 13.8752 132.729 13.8752C132.275 13.8752 131.881 13.965 131.545 14.1447C131.217 14.3244 130.943 14.5744 130.725 14.8947C130.514 15.2072 130.354 15.5744 130.244 15.9963C130.135 16.4182 130.08 16.8713 130.08 17.3557ZM148.221 21.1057V11.4611H151.596V24.1408H148.42L148.221 21.1057ZM148.596 18.5041L149.592 18.4807C149.592 19.3244 149.494 20.1096 149.299 20.8361C149.104 21.5549 148.811 22.1799 148.42 22.7111C148.029 23.2346 147.537 23.6447 146.943 23.9416C146.35 24.2307 145.65 24.3752 144.846 24.3752C144.229 24.3752 143.658 24.2892 143.135 24.1174C142.619 23.9377 142.174 23.6603 141.799 23.2853C141.432 22.9025 141.143 22.4142 140.932 21.8205C140.729 21.2189 140.627 20.4963 140.627 19.6525V11.4611H144.002V19.676C144.002 20.051 144.045 20.3674 144.131 20.6252C144.225 20.883 144.354 21.0939 144.518 21.258C144.682 21.4221 144.873 21.5392 145.092 21.6096C145.318 21.6799 145.568 21.715 145.842 21.715C146.537 21.715 147.084 21.5744 147.482 21.2932C147.889 21.0119 148.174 20.6291 148.338 20.1447C148.51 19.6525 148.596 19.1057 148.596 18.5041ZM160.01 24.3752C159.025 24.3752 158.143 24.2189 157.361 23.9064C156.58 23.5861 155.916 23.1447 155.369 22.5822C154.83 22.0197 154.416 21.3674 154.127 20.6252C153.838 19.8752 153.693 19.0783 153.693 18.2346V17.7658C153.693 16.8049 153.83 15.926 154.104 15.1291C154.377 14.3322 154.768 13.6408 155.275 13.0549C155.791 12.4689 156.416 12.0197 157.15 11.7072C157.885 11.3869 158.713 11.2267 159.635 11.2267C160.533 11.2267 161.33 11.3752 162.025 11.6721C162.721 11.9689 163.303 12.3908 163.771 12.9377C164.248 13.4846 164.607 14.1408 164.85 14.9064C165.092 15.6642 165.213 16.508 165.213 17.4377V18.8439H155.135V16.5939H161.896V16.3361C161.896 15.8674 161.811 15.4494 161.639 15.0822C161.475 14.7072 161.225 14.4103 160.889 14.1916C160.553 13.9728 160.123 13.8635 159.6 13.8635C159.154 13.8635 158.771 13.9611 158.451 14.1564C158.131 14.3517 157.869 14.6252 157.666 14.9767C157.471 15.3283 157.322 15.7424 157.221 16.2189C157.127 16.6877 157.08 17.2033 157.08 17.7658V18.2346C157.08 18.7424 157.15 19.2111 157.291 19.6408C157.439 20.0705 157.646 20.4416 157.912 20.7541C158.186 21.0666 158.514 21.3088 158.896 21.4807C159.287 21.6525 159.729 21.7385 160.221 21.7385C160.83 21.7385 161.396 21.6213 161.92 21.3869C162.451 21.1447 162.908 20.7814 163.291 20.2971L164.932 22.0783C164.666 22.4611 164.303 22.8283 163.842 23.1799C163.389 23.5314 162.842 23.8205 162.201 24.0471C161.561 24.2658 160.83 24.3752 160.01 24.3752Z" fill="#CBD5E1"/>
</svg>
