<svg width="135" height="41" viewBox="0 0 135 41" fill="none" xmlns="http://www.w3.org/2000/svg">
<path d="M130 0.140625H5C2.23858 0.140625 0 2.3792 0 5.14062V35.1406C0 37.9021 2.23858 40.1406 5 40.1406H130C132.761 40.1406 135 37.9021 135 35.1406V5.14062C135 2.3792 132.761 0.140625 130 0.140625Z" fill="black"/>
<path d="M130 0.940625C131.114 0.940625 132.182 1.38312 132.97 2.17078C133.758 2.95843 134.2 4.02672 134.2 5.14062V35.1406C134.2 36.2545 133.758 37.3228 132.97 38.1105C132.182 38.8981 131.114 39.3406 130 39.3406H5C3.88609 39.3406 2.8178 38.8981 2.03015 38.1105C1.2425 37.3228 0.8 36.2545 0.8 35.1406V5.14062C0.8 4.02672 1.2425 2.95843 2.03015 2.17078C2.8178 1.38312 3.88609 0.940625 5 0.940625H130ZM130 0.140625H5C3.67392 0.140625 2.40215 0.667409 1.46447 1.60509C0.526784 2.54277 0 3.81454 0 5.14062V35.1406C0 36.4667 0.526784 37.7385 1.46447 38.6762C2.40215 39.6138 3.67392 40.1406 5 40.1406H130C131.326 40.1406 132.598 39.6138 133.536 38.6762C134.473 37.7385 135 36.4667 135 35.1406V5.14062C135 3.81454 134.473 2.54277 133.536 1.60509C132.598 0.667409 131.326 0.140625 130 0.140625Z" fill="#A6A6A6"/>
<path d="M44.4535 10.6264H46.4871V13.5357C46.1707 13.6366 45.8488 13.713 45.5214 13.7648C45.1941 13.8167 44.8149 13.8426 44.3839 13.8426C43.4783 13.8426 42.7731 13.5739 42.2685 13.0365C41.7638 12.4964 41.5115 11.7408 41.5115 10.7696C41.5115 10.1477 41.6356 9.60348 41.8838 9.13701C42.1348 8.66782 42.4949 8.31047 42.9641 8.06496C43.4333 7.81673 43.9829 7.69261 44.6131 7.69261C45.2514 7.69261 45.8461 7.80991 46.3971 8.0445L46.127 8.65827C45.5869 8.42913 45.0672 8.31456 44.568 8.31456C43.8397 8.31456 43.2709 8.53143 42.8618 8.96516C42.4526 9.39889 42.248 10.0004 42.248 10.7696C42.248 11.5771 42.4444 12.1895 42.8372 12.6069C43.2328 13.0242 43.8124 13.2329 44.5762 13.2329C44.9909 13.2329 45.396 13.1852 45.7915 13.0897V11.2484H44.4535V10.6264ZM51.2622 13.7607H47.9274V7.77854H51.2622V8.3964H48.623V10.3236H51.1026V10.9374H48.623V13.1388H51.2622V13.7607ZM54.4334 13.7607H53.7378V8.3964H51.8433V7.77854H56.3279V8.3964H54.4334V13.7607ZM59.409 13.7607V7.77854H60.1046V13.7607H59.409ZM63.5908 13.7607H62.8952V8.3964H61.0007V7.77854H65.4853V8.3964H63.5908V13.7607ZM73.7589 10.7615C73.7589 11.7189 73.5161 12.4718 73.0306 13.0201C72.5478 13.5684 71.8753 13.8426 71.0133 13.8426C70.1322 13.8426 69.4516 13.5739 68.9715 13.0365C68.4941 12.4964 68.2555 11.7353 68.2555 10.7533C68.2555 9.77942 68.4955 9.02517 68.9756 8.49051C69.4557 7.95312 70.1377 7.68442 71.0215 7.68442C71.8808 7.68442 72.5518 7.95721 73.0347 8.50278C73.5175 9.04836 73.7589 9.80125 73.7589 10.7615ZM68.992 10.7615C68.992 11.5716 69.1638 12.1868 69.5075 12.6069C69.854 13.0242 70.3559 13.2329 71.0133 13.2329C71.6762 13.2329 72.1768 13.0242 72.515 12.6069C72.8533 12.1895 73.0224 11.5744 73.0224 10.7615C73.0224 9.95673 72.8533 9.34706 72.515 8.93242C72.1795 8.51506 71.6817 8.30638 71.0215 8.30638C70.3586 8.30638 69.854 8.51642 69.5075 8.93651C69.1638 9.35388 68.992 9.96219 68.992 10.7615ZM79.7698 13.7607H78.976L75.7066 8.74011H75.6739C75.7175 9.32933 75.7394 9.86944 75.7394 10.3605V13.7607H75.0969V7.77854H75.8826L79.1437 12.7787H79.1765C79.171 12.7051 79.1587 12.4691 79.1396 12.0708C79.1205 11.6698 79.1137 11.3834 79.1192 11.2116V7.77854H79.7698V13.7607Z" fill="white"/>
<path d="M44.4535 10.6264V10.5264H44.3535V10.6264H44.4535ZM46.4871 10.6264H46.5871V10.5264H46.4871V10.6264ZM46.4871 13.5357L46.5175 13.631L46.5871 13.6088V13.5357H46.4871ZM42.2685 13.0365L42.1954 13.1048L42.1956 13.1049L42.2685 13.0365ZM41.8838 9.13701L41.7956 9.08985L41.7955 9.09003L41.8838 9.13701ZM42.9641 8.06496L43.0104 8.15357L43.0108 8.15335L42.9641 8.06496ZM46.3971 8.0445L46.4886 8.08478L46.5294 7.99214L46.4363 7.95249L46.3971 8.0445ZM46.127 8.65827L46.088 8.75033L46.1788 8.78887L46.2186 8.69855L46.127 8.65827ZM42.8372 12.6069L42.7644 12.6754L42.7646 12.6756L42.8372 12.6069ZM45.7915 13.0897L45.815 13.1869L45.8915 13.1684V13.0897H45.7915ZM45.7915 11.2484H45.8915V11.1484H45.7915V11.2484ZM44.4535 11.2484H44.3535V11.3484H44.4535V11.2484ZM44.4535 10.7264H46.4871V10.5264H44.4535V10.7264ZM46.3871 10.6264V13.5357H46.5871V10.6264H46.3871ZM46.4567 13.4404C46.1451 13.5398 45.8281 13.615 45.5058 13.6661L45.5371 13.8636C45.8694 13.811 46.1962 13.7334 46.5175 13.631L46.4567 13.4404ZM45.5058 13.6661C45.1849 13.7169 44.8111 13.7426 44.3839 13.7426V13.9426C44.8187 13.9426 45.2033 13.9165 45.5371 13.8636L45.5058 13.6661ZM44.3839 13.7426C43.4991 13.7426 42.8229 13.4808 42.3414 12.968L42.1956 13.1049C42.7233 13.6669 43.4574 13.9426 44.3839 13.9426V13.7426ZM42.3415 12.9682C41.859 12.4518 41.6115 11.7236 41.6115 10.7696H41.4115C41.4115 11.7579 41.6686 12.5409 42.1954 13.1048L42.3415 12.9682ZM41.6115 10.7696C41.6115 10.1612 41.7328 9.63363 41.9721 9.18399L41.7955 9.09003C41.5384 9.57332 41.4115 10.1342 41.4115 10.7696H41.6115ZM41.972 9.18418C42.2136 8.73259 42.5591 8.38972 43.0104 8.15356L42.9177 7.97636C42.4306 8.23122 42.056 8.60305 41.7956 9.08985L41.972 9.18418ZM43.0108 8.15335C43.4631 7.91405 43.9962 7.79261 44.6131 7.79261V7.59261C43.9697 7.59261 43.4034 7.7194 42.9173 7.97657L43.0108 8.15335ZM44.6131 7.79261C45.2388 7.79261 45.8201 7.90753 46.3579 8.13651L46.4363 7.95249C45.872 7.71228 45.2639 7.59261 44.6131 7.59261V7.79261ZM46.3055 8.00423L46.0355 8.618L46.2186 8.69855L46.4886 8.08478L46.3055 8.00423ZM46.1661 8.56621C45.6157 8.33274 45.0828 8.21456 44.568 8.21456V8.41456C45.0517 8.41456 45.5581 8.52552 46.088 8.75033L46.1661 8.56621ZM44.568 8.21456C43.8187 8.21456 43.2212 8.43846 42.789 8.89653L42.9345 9.03378C43.3207 8.62439 43.8607 8.41456 44.568 8.41456V8.21456ZM42.789 8.89653C42.3577 9.35374 42.148 9.98253 42.148 10.7696H42.348C42.348 10.0182 42.5475 9.44404 42.9345 9.03378L42.789 8.89653ZM42.148 10.7696C42.148 11.5921 42.3481 12.2331 42.7644 12.6754L42.91 12.5383C42.5407 12.1459 42.348 11.5621 42.348 10.7696H42.148ZM42.7646 12.6756C43.1847 13.1189 43.7944 13.3329 44.5762 13.3329V13.1329C43.8305 13.1329 43.2808 12.9296 42.9098 12.5381L42.7646 12.6756ZM44.5762 13.3329C44.9986 13.3329 45.4116 13.2843 45.815 13.1869L45.768 12.9925C45.3803 13.0861 44.9831 13.1329 44.5762 13.1329V13.3329ZM45.8915 13.0897V11.2484H45.6915V13.0897H45.8915ZM45.7915 11.1484H44.4535V11.3484H45.7915V11.1484ZM44.5535 11.2484V10.6264H44.3535V11.2484H44.5535ZM51.2622 13.7607V13.8607H51.3622V13.7607H51.2622ZM47.9274 13.7607H47.8274V13.8607H47.9274V13.7607ZM47.9274 7.77854V7.67853H47.8274V7.77854H47.9274ZM51.2622 7.77854H51.3622V7.67853H51.2622V7.77854ZM51.2622 8.3964V8.4964H51.3622V8.3964H51.2622ZM48.623 8.3964V8.2964H48.523V8.3964H48.623ZM48.623 10.3236H48.523V10.4236H48.623V10.3236ZM51.1026 10.3236H51.2026V10.2236H51.1026V10.3236ZM51.1026 10.9374V11.0374H51.2026V10.9374H51.1026ZM48.623 10.9374V10.8374H48.523V10.9374H48.623ZM48.623 13.1388H48.523V13.2388H48.623V13.1388ZM51.2622 13.1388H51.3622V13.0388H51.2622V13.1388ZM51.2622 13.6607H47.9274V13.8607H51.2622V13.6607ZM48.0274 13.7607V7.77854H47.8274V13.7607H48.0274ZM47.9274 7.87854H51.2622V7.67853H47.9274V7.87854ZM51.1622 7.77854V8.3964H51.3622V7.77854H51.1622ZM51.2622 8.2964H48.623V8.4964H51.2622V8.2964ZM48.523 8.3964V10.3236H48.723V8.3964H48.523ZM48.623 10.4236H51.1026V10.2236H48.623V10.4236ZM51.0026 10.3236V10.9374H51.2026V10.3236H51.0026ZM51.1026 10.8374H48.623V11.0374H51.1026V10.8374ZM48.523 10.9374V13.1388H48.723V10.9374H48.523ZM48.623 13.2388H51.2622V13.0388H48.623V13.2388ZM51.1622 13.1388V13.7607H51.3622V13.1388H51.1622ZM54.4334 13.7607V13.8607H54.5334V13.7607H54.4334ZM53.7378 13.7607H53.6378V13.8607H53.7378V13.7607ZM53.7378 8.3964H53.8378V8.2964H53.7378V8.3964ZM51.8433 8.3964H51.7433V8.4964H51.8433V8.3964ZM51.8433 7.77854V7.67853H51.7433V7.77854H51.8433ZM56.3279 7.77854H56.4279V7.67853H56.3279V7.77854ZM56.3279 8.3964V8.4964H56.4279V8.3964H56.3279ZM54.4334 8.3964V8.2964H54.3334V8.3964H54.4334ZM54.4334 13.6607H53.7378V13.8607H54.4334V13.6607ZM53.8378 13.7607V8.3964H53.6378V13.7607H53.8378ZM53.7378 8.2964H51.8433V8.4964H53.7378V8.2964ZM51.9433 8.3964V7.77854H51.7433V8.3964H51.9433ZM51.8433 7.87854H56.3279V7.67853H51.8433V7.87854ZM56.2279 7.77854V8.3964H56.4279V7.77854H56.2279ZM56.3279 8.2964H54.4334V8.4964H56.3279V8.2964ZM54.3334 8.3964V13.7607H54.5334V8.3964H54.3334ZM59.409 13.7607H59.309V13.8607H59.409V13.7607ZM59.409 7.77854V7.67853H59.309V7.77854H59.409ZM60.1046 7.77854H60.2046V7.67853H60.1046V7.77854ZM60.1046 13.7607V13.8607H60.2046V13.7607H60.1046ZM59.509 13.7607V7.77854H59.309V13.7607H59.509ZM59.409 7.87854H60.1046V7.67853H59.409V7.87854ZM60.0046 7.77854V13.7607H60.2046V7.77854H60.0046ZM60.1046 13.6607H59.409V13.8607H60.1046V13.6607ZM63.5908 13.7607V13.8607H63.6908V13.7607H63.5908ZM62.8952 13.7607H62.7952V13.8607H62.8952V13.7607ZM62.8952 8.3964H62.9952V8.2964H62.8952V8.3964ZM61.0007 8.3964H60.9007V8.4964H61.0007V8.3964ZM61.0007 7.77854V7.67853H60.9007V7.77854H61.0007ZM65.4853 7.77854H65.5853V7.67853H65.4853V7.77854ZM65.4853 8.3964V8.4964H65.5853V8.3964H65.4853ZM63.5908 8.3964V8.2964H63.4908V8.3964H63.5908ZM63.5908 13.6607H62.8952V13.8607H63.5908V13.6607ZM62.9952 13.7607V8.3964H62.7952V13.7607H62.9952ZM62.8952 8.2964H61.0007V8.4964H62.8952V8.2964ZM61.1007 8.3964V7.77854H60.9007V8.3964H61.1007ZM61.0007 7.87854H65.4853V7.67853H61.0007V7.87854ZM65.3853 7.77854V8.3964H65.5853V7.77854H65.3853ZM65.4853 8.2964H63.5908V8.4964H65.4853V8.2964ZM63.4908 8.3964V13.7607H63.6908V8.3964H63.4908ZM73.0306 13.0201L72.9557 12.9538L72.9555 12.954L73.0306 13.0201ZM68.9715 13.0365L68.8966 13.1027L68.8969 13.1031L68.9715 13.0365ZM68.9756 8.49051L69.05 8.55732L69.0502 8.55713L68.9756 8.49051ZM69.5075 12.6069L69.4302 12.6702L69.4306 12.6707L69.5075 12.6069ZM72.515 8.93242L72.4371 8.99508L72.4375 8.99563L72.515 8.93242ZM69.5075 8.93651L69.4304 8.87289L69.4304 8.87294L69.5075 8.93651ZM73.6589 10.7615C73.6589 11.7022 73.4206 12.4288 72.9557 12.9538L73.1054 13.0864C73.6117 12.5148 73.8589 11.7357 73.8589 10.7615H73.6589ZM72.9555 12.954C72.4951 13.4769 71.8523 13.7426 71.0133 13.7426V13.9426C71.8984 13.9426 72.6004 13.66 73.1056 13.0862L72.9555 12.954ZM71.0133 13.7426C70.1538 13.7426 69.5031 13.4814 69.0461 12.9699L68.8969 13.1031C69.4002 13.6664 70.1106 13.9426 71.0133 13.9426V13.7426ZM69.0465 12.9703C68.5903 12.4541 68.3555 11.7198 68.3555 10.7533H68.1555C68.1555 11.7508 68.398 12.5386 68.8966 13.1027L69.0465 12.9703ZM68.3555 10.7533C68.3555 9.79523 68.5915 9.06796 69.05 8.55732L68.9012 8.4237C68.3995 8.98238 68.1555 9.76362 68.1555 10.7533H68.3555ZM69.0502 8.55713C69.5071 8.04568 70.1592 7.78442 71.0215 7.78442V7.58442C70.1162 7.58442 69.4043 7.86056 68.901 8.42388L69.0502 8.55713ZM71.0215 7.78442C71.8578 7.78442 72.4994 8.04882 72.9598 8.56906L73.1096 8.43651C72.6043 7.8656 71.9038 7.58442 71.0215 7.58442V7.78442ZM72.9598 8.56906C73.4219 9.09118 73.6589 9.81775 73.6589 10.7615H73.8589C73.8589 9.78474 73.6131 9.00553 73.1096 8.43651L72.9598 8.56906ZM68.892 10.7615C68.892 11.5838 69.0661 12.2253 69.4302 12.6702L69.5849 12.5435C69.2615 12.1483 69.092 11.5595 69.092 10.7615H68.892ZM69.4306 12.6707C69.8001 13.1158 70.3331 13.3329 71.0133 13.3329V13.1329C70.3787 13.1329 69.9079 12.9326 69.5845 12.543L69.4306 12.6707ZM71.0133 13.3329C71.6986 13.3329 72.2311 13.116 72.5927 12.6698L72.4373 12.5439C72.1225 12.9324 71.6538 13.1329 71.0133 13.1329V13.3329ZM72.5927 12.6698C72.9512 12.2275 73.1224 11.586 73.1224 10.7615H72.9224C72.9224 11.5627 72.7554 12.1515 72.4373 12.5439L72.5927 12.6698ZM73.1224 10.7615C73.1224 9.94483 72.9511 9.30875 72.5925 8.86921L72.4375 8.99563C72.7555 9.38537 72.9224 9.96864 72.9224 10.7615H73.1224ZM72.593 8.86977C72.2341 8.42334 71.7042 8.20638 71.0215 8.20638V8.40638C71.6591 8.40638 72.1249 8.60677 72.4371 8.99508L72.593 8.86977ZM71.0215 8.20638C70.3359 8.20638 69.8 8.42477 69.4304 8.87289L69.5847 9.00014C69.908 8.60807 70.3814 8.40638 71.0215 8.40638V8.20638ZM69.4304 8.87294C69.0663 9.31504 68.892 9.94972 68.892 10.7615H69.092C69.092 9.97466 69.2614 9.39272 69.5847 9.00008L69.4304 8.87294ZM79.7698 13.7607V13.8607H79.8698V13.7607H79.7698ZM78.976 13.7607L78.8922 13.8153L78.9218 13.8607H78.976V13.7607ZM75.7066 8.74011L75.7904 8.68554L75.7608 8.64011H75.7066V8.74011ZM75.6739 8.74011V8.64011H75.5662L75.5742 8.74749L75.6739 8.74011ZM75.7394 13.7607V13.8607H75.8394V13.7607H75.7394ZM75.0969 13.7607H74.9969V13.8607H75.0969V13.7607ZM75.0969 7.77854V7.67853H74.9969V7.77854H75.0969ZM75.8826 7.77854L75.9663 7.72391L75.9367 7.67853H75.8826V7.77854ZM79.1437 12.7787L79.06 12.8333L79.0896 12.8787H79.1437V12.7787ZM79.1765 12.7787V12.8787H79.2841L79.2762 12.7713L79.1765 12.7787ZM79.1396 12.0708L79.0398 12.0756L79.0398 12.0756L79.1396 12.0708ZM79.1192 11.2116L79.2192 11.2147V11.2116H79.1192ZM79.1192 7.77854V7.67853H79.0192V7.77854H79.1192ZM79.7698 7.77854H79.8698V7.67853H79.7698V7.77854ZM79.7698 13.6607H78.976V13.8607H79.7698V13.6607ZM79.0598 13.7062L75.7904 8.68554L75.6228 8.79468L78.8922 13.8153L79.0598 13.7062ZM75.7066 8.64011H75.6739V8.84011H75.7066V8.64011ZM75.5742 8.74749C75.6177 9.33473 75.6394 9.87234 75.6394 10.3605H75.8394C75.8394 9.86654 75.8174 9.32392 75.7736 8.73272L75.5742 8.74749ZM75.6394 10.3605V13.7607H75.8394V10.3605H75.6394ZM75.7394 13.6607H75.0969V13.8607H75.7394V13.6607ZM75.1969 13.7607V7.77854H74.9969V13.7607H75.1969ZM75.0969 7.87854H75.8826V7.67853H75.0969V7.87854ZM75.7988 7.83316L79.06 12.8333L79.2275 12.7241L75.9663 7.72391L75.7988 7.83316ZM79.1437 12.8787H79.1765V12.6787H79.1437V12.8787ZM79.2762 12.7713C79.2709 12.6993 79.2587 12.465 79.2395 12.066L79.0398 12.0756C79.0588 12.4732 79.0712 12.7108 79.0767 12.7861L79.2762 12.7713ZM79.2395 12.0661C79.2204 11.6652 79.2138 11.3822 79.2191 11.2147L79.0192 11.2084C79.0136 11.3846 79.0207 11.6745 79.0398 12.0756L79.2395 12.0661ZM79.2192 11.2116V7.77854H79.0192V11.2116H79.2192ZM79.1192 7.87854H79.7698V7.67853H79.1192V7.87854ZM79.6698 7.77854V13.7607H79.8698V7.77854H79.6698Z" fill="white"/>
<path d="M68.1401 21.8905C67.2976 21.8925 66.4745 22.1443 65.7751 22.614C65.0756 23.0838 64.5312 23.7504 64.2106 24.5296C63.89 25.3087 63.8076 26.1655 63.9739 26.9914C64.1402 27.8174 64.5477 28.5755 65.1449 29.1699C65.7421 29.7642 66.5021 30.1682 67.3288 30.3306C68.1556 30.4931 69.0119 30.4067 69.7896 30.0824C70.5672 29.7582 71.2313 29.2106 71.6977 28.509C72.1642 27.8073 72.4121 26.9831 72.4101 26.1405C72.4183 25.5785 72.3132 25.0205 72.1013 24.4999C71.8893 23.9793 71.5748 23.5066 71.1764 23.1101C70.7779 22.7135 70.3038 22.4012 69.7822 22.1917C69.2606 21.9822 68.7021 21.8798 68.1401 21.8905ZM68.1401 28.7205C67.6237 28.7567 67.1083 28.6366 66.6611 28.3759C66.2138 28.1153 65.8553 27.7261 65.6321 27.259C65.409 26.7919 65.3315 26.2684 65.4098 25.7567C65.4881 25.245 65.7185 24.7686 66.0711 24.3896C66.4237 24.0105 66.8821 23.7463 67.3869 23.6313C67.8916 23.5163 68.4193 23.5558 68.9013 23.7446C69.3833 23.9335 69.7973 24.263 70.0896 24.6903C70.3819 25.1175 70.5388 25.6229 70.5401 26.1405C70.5562 26.4686 70.5065 26.7965 70.3938 27.105C70.2812 27.4135 70.1079 27.6963 69.8842 27.9367C69.6606 28.1772 69.391 28.3704 69.0914 28.505C68.7919 28.6397 68.4684 28.7129 68.1401 28.7205ZM58.8201 21.8905C57.9776 21.8925 57.1545 22.1443 56.4551 22.614C55.7556 23.0838 55.2112 23.7504 54.8906 24.5296C54.57 25.3087 54.4876 26.1655 54.6539 26.9914C54.8202 27.8174 55.2277 28.5755 55.8249 29.1699C56.4221 29.7642 57.1821 30.1682 58.0088 30.3306C58.8356 30.4931 59.6919 30.4067 60.4696 30.0824C61.2472 29.7582 61.9113 29.2106 62.3777 28.509C62.8442 27.8073 63.0921 26.9831 63.0901 26.1405C63.0982 25.5785 62.9932 25.0205 62.7813 24.4999C62.5693 23.9793 62.2548 23.5066 61.8564 23.1101C61.4579 22.7135 60.9838 22.4012 60.4622 22.1917C59.9406 21.9822 59.3821 21.8798 58.8201 21.8905ZM58.8201 28.7205C58.3037 28.7567 57.7883 28.6366 57.3411 28.3759C56.8938 28.1153 56.5353 27.7261 56.3121 27.259C56.089 26.7919 56.0115 26.2684 56.0898 25.7567C56.1681 25.245 56.3985 24.7686 56.7511 24.3896C57.1037 24.0105 57.5621 23.7463 58.0669 23.6313C58.5716 23.5163 59.0993 23.5558 59.5813 23.7446C60.0633 23.9335 60.4773 24.263 60.7696 24.6903C61.0619 25.1175 61.2188 25.6229 61.2201 26.1405C61.2362 26.4686 61.1865 26.7965 61.0738 27.105C60.9612 27.4135 60.7879 27.6963 60.5642 27.9367C60.3406 28.1772 60.071 28.3704 59.7714 28.505C59.4719 28.6397 59.1484 28.7129 58.8201 28.7205ZM47.7401 23.2005V25.0005H52.0601C51.9924 25.8484 51.6399 26.6483 51.0601 27.2705C50.6268 27.7121 50.1056 28.0577 49.5302 28.2851C48.9549 28.5124 48.3382 28.6165 47.7201 28.5905C46.4471 28.5905 45.2262 28.0848 44.326 27.1847C43.4258 26.2845 42.9201 25.0636 42.9201 23.7905C42.9201 22.5175 43.4258 21.2966 44.326 20.3964C45.2262 19.4963 46.4471 18.9905 47.7201 18.9905C48.9405 18.9724 50.119 19.4359 51.0001 20.2805L52.2701 19.0105C51.6741 18.4211 50.9664 17.9564 50.1886 17.6439C49.4107 17.3314 48.5783 17.1773 47.7401 17.1905C46.8511 17.1559 45.9643 17.3012 45.1327 17.6175C44.3012 17.9339 43.5421 18.4148 42.9009 19.0316C42.2596 19.6483 41.7495 20.3881 41.4011 21.2067C41.0527 22.0253 40.873 22.9059 40.873 23.7955C40.873 24.6852 41.0527 25.5657 41.4011 26.3843C41.7495 27.203 42.2596 27.9428 42.9009 28.5595C43.5421 29.1763 44.3012 29.6572 45.1327 29.9736C45.9643 30.2899 46.8511 30.4351 47.7401 30.4005C48.5955 30.4347 49.4485 30.2875 50.243 29.9687C51.0375 29.6499 51.7556 29.1666 52.3501 28.5505C53.4002 27.397 53.9598 25.8797 53.9101 24.3205C53.9137 23.9453 53.8836 23.5704 53.8201 23.2005H47.7401ZM93.0501 24.6005C92.7893 23.8333 92.3016 23.1633 91.6516 22.6794C91.0016 22.1955 90.2199 21.9204 89.4101 21.8905C88.8631 21.8895 88.3217 22.0006 87.8193 22.2171C87.317 22.4336 86.8644 22.7508 86.4895 23.1491C86.1146 23.5474 85.8254 24.0184 85.6397 24.5329C85.4541 25.0475 85.3759 25.5946 85.4101 26.1405C85.4016 27.0534 85.6885 27.9445 86.2282 28.6808C86.7679 29.4171 87.5313 29.959 88.4044 30.2257C89.2774 30.4923 90.2134 30.4694 91.0723 30.1603C91.9313 29.8511 92.6672 29.2724 93.1701 28.5105L91.7201 27.5105C91.5039 27.8708 91.1974 28.1683 90.8307 28.3736C90.4641 28.5788 90.0502 28.6846 89.6301 28.6805C89.1967 28.6984 88.768 28.5848 88.4003 28.3546C88.0327 28.1243 87.7432 27.7883 87.5701 27.3905L93.2601 25.0405L93.0501 24.6005ZM87.2501 26.0205C87.2298 25.7099 87.2717 25.3984 87.3734 25.1042C87.475 24.8099 87.6343 24.539 87.842 24.3071C88.0497 24.0752 88.3015 23.8871 88.5828 23.7537C88.8641 23.6204 89.1691 23.5445 89.4801 23.5305C89.8023 23.5109 90.1231 23.5867 90.4024 23.7486C90.6817 23.9105 90.907 24.1512 91.0501 24.4405L87.2501 26.0205ZM82.6301 30.1405H84.5001V17.6405H82.6301V30.1405ZM79.5701 22.8405H79.5001C79.2207 22.5224 78.876 22.2684 78.4894 22.0958C78.1028 21.9232 77.6835 21.8361 77.2601 21.8405C76.1673 21.8935 75.1367 22.365 74.3821 23.1571C73.6274 23.9493 73.2064 25.0014 73.2064 26.0955C73.2064 27.1897 73.6274 28.2418 74.3821 29.034C75.1367 29.8261 76.1673 30.2976 77.2601 30.3505C77.6841 30.3591 78.1047 30.2738 78.4919 30.101C78.8791 29.9281 79.2234 29.6719 79.5001 29.3505H79.5701V29.9605C79.5701 31.5905 78.7001 32.4605 77.3001 32.4605C76.8324 32.4503 76.3783 32.3012 75.9955 32.0324C75.6127 31.7635 75.3185 31.387 75.1501 30.9505L73.5301 31.6205C73.8296 32.3728 74.3504 33.0164 75.0235 33.4664C75.6966 33.9163 76.4905 34.1514 77.3001 34.1405C79.4901 34.1405 81.3001 32.8505 81.3001 29.7105V22.1405H79.5701V22.8405ZM77.4201 28.7205C76.7649 28.6797 76.1499 28.3906 75.7004 27.9122C75.2509 27.4338 75.0006 26.802 75.0006 26.1455C75.0006 25.4891 75.2509 24.8573 75.7004 24.3789C76.1499 23.9005 76.7649 23.6114 77.4201 23.5705C77.7403 23.5844 78.0545 23.6625 78.344 23.8002C78.6334 23.9379 78.8922 24.1324 79.1049 24.3722C79.3176 24.612 79.4799 24.8921 79.5822 25.1959C79.6844 25.4997 79.7245 25.8209 79.7001 26.1405C79.7274 26.4612 79.6893 26.7841 79.5883 27.0897C79.4872 27.3953 79.3252 27.6772 79.1121 27.9183C78.8989 28.1595 78.6391 28.3549 78.3483 28.4928C78.0575 28.6307 77.7417 28.7082 77.4201 28.7205ZM101.81 17.6405H97.3301V30.1405H99.2001V25.4005H101.81C102.343 25.4388 102.878 25.3669 103.382 25.1893C103.886 25.0116 104.348 24.7321 104.739 24.368C105.13 24.004 105.442 23.5633 105.655 23.0734C105.869 22.5835 105.979 22.0549 105.979 21.5205C105.979 20.9862 105.869 20.4576 105.655 19.9677C105.442 19.4778 105.13 19.0371 104.739 18.6731C104.348 18.309 103.886 18.0295 103.382 17.8518C102.878 17.6742 102.343 17.6023 101.81 17.6405ZM101.81 23.6405H99.2001V19.3805H101.85C102.131 19.3805 102.409 19.4359 102.669 19.5434C102.929 19.651 103.165 19.8086 103.363 20.0073C103.562 20.2061 103.72 20.442 103.827 20.7016C103.935 20.9612 103.99 21.2395 103.99 21.5205C103.99 21.8016 103.935 22.0799 103.827 22.3395C103.72 22.5991 103.562 22.835 103.363 23.0338C103.165 23.2325 102.929 23.3901 102.669 23.4976C102.409 23.6052 102.131 23.6605 101.85 23.6605L101.81 23.6405ZM113.35 21.8505C112.669 21.8086 111.991 21.9671 111.399 22.3066C110.807 22.646 110.328 23.1515 110.02 23.7605L111.67 24.4505C111.837 24.15 112.087 23.9041 112.39 23.7426C112.694 23.5811 113.038 23.5109 113.38 23.5405C113.617 23.5128 113.858 23.5326 114.088 23.5989C114.317 23.6651 114.531 23.7764 114.718 23.9263C114.904 24.0761 115.058 24.2616 115.172 24.4718C115.286 24.682 115.356 24.9127 115.38 25.1505V25.2705C114.779 24.9545 114.109 24.7897 113.43 24.7905C111.65 24.7905 109.83 25.7905 109.83 27.6105C109.848 27.9974 109.943 28.3768 110.11 28.7261C110.277 29.0754 110.513 29.3876 110.803 29.6442C111.093 29.9007 111.432 30.0963 111.799 30.2193C112.166 30.3424 112.554 30.3904 112.94 30.3605C113.409 30.3865 113.877 30.2872 114.295 30.0728C114.714 29.8584 115.067 29.5367 115.32 29.1405H115.38V30.1405H117.18V25.3305C117.18 23.1405 115.52 21.8705 113.39 21.8705L113.35 21.8505ZM113.12 28.7005C112.51 28.7005 111.66 28.3905 111.66 27.6405C111.66 26.6405 112.72 26.3005 113.66 26.3005C114.254 26.2859 114.841 26.4309 115.36 26.7205C115.297 27.2636 115.04 27.7655 114.635 28.1333C114.231 28.501 113.707 28.7097 113.16 28.7205L113.12 28.7005ZM123.74 22.1405L121.6 27.5605H121.54L119.32 22.1405H117.32L120.65 29.7205L118.75 33.9305H120.7L125.82 22.1405H123.74ZM106.94 30.1405H108.8V17.6405H106.94V30.1405Z" fill="white"/>
<path d="M20.7203 19.5605L10.0703 30.8605C10.1867 31.2879 10.3997 31.6829 10.693 32.0149C10.9862 32.3468 11.3519 32.6069 11.7617 32.7751C12.1714 32.9433 12.6144 33.015 13.0563 32.9847C13.4982 32.9545 13.9273 32.823 14.3103 32.6005L26.3103 25.6805L20.7203 19.5605Z" fill="#EA4335"/>
<path d="M31.4902 17.6406L26.3102 14.6406L20.4902 19.8306L26.3302 25.6806L31.4802 22.6806C31.938 22.4354 32.3207 22.0706 32.5875 21.6251C32.8543 21.1795 32.9952 20.6699 32.9952 20.1506C32.9952 19.6313 32.8543 19.1217 32.5875 18.6762C32.3207 18.2306 31.938 17.8658 31.4802 17.6206L31.4902 17.6406Z" fill="#FBBC04"/>
<path d="M10.071 9.4209C10.0181 9.6571 9.99463 9.89893 10.001 10.1409V30.1409C10.0028 30.3908 10.0364 30.6395 10.101 30.8809L21.101 19.8809L10.071 9.4209Z" fill="#4285F4"/>
<path d="M20.7991 20.1403L26.3091 14.6303L14.3091 7.69027C13.8582 7.42227 13.3435 7.28065 12.8191 7.28027C12.1864 7.28209 11.5719 7.49144 11.0697 7.87621C10.5675 8.26098 10.2054 8.7999 10.0391 9.41027L20.7991 20.1403Z" fill="#34A853"/>
</svg>
