<svg width="177" height="33" viewBox="0 0 177 33" fill="none" xmlns="http://www.w3.org/2000/svg">
<path d="M23.4838 26.6253L2.07114 11.8548C-0.0987724 10.3581 0.638853 7.24168 3.34467 6.50883L26.1024 0.332115C26.5845 0.158165 27.1011 0.101697 27.6094 0.167403C28.1177 0.233109 28.603 0.419091 29.025 0.709916C29.4469 1.00074 29.7936 1.38802 30.0359 1.8396C30.2781 2.29119 30.4093 2.79407 30.4184 3.30649L29.0697 24.2524C28.9097 26.7387 25.6537 28.122 23.4838 26.6253Z" fill="#CBD5E1"/>
<path d="M16.6928 30.2712L4.07798 5.60136C3.78961 5.03699 3.66273 4.40393 3.71129 3.77202C3.75986 3.14011 3.982 2.53388 4.35322 2.02021C4.72444 1.50653 5.23031 1.10535 5.81505 0.860906C6.39979 0.616463 7.04068 0.53826 7.66704 0.634927L31.0455 4.24307C31.5837 4.32616 32.0945 4.53581 32.536 4.85479C32.9774 5.17378 33.3368 5.59299 33.5847 6.07795C33.8325 6.56291 33.9617 7.09976 33.9616 7.64439C33.9615 8.189 33.8321 8.72583 33.5842 9.21071L22.8146 30.2724C22.5254 30.8351 22.0867 31.3073 21.5466 31.6369C21.0065 31.9665 20.3861 32.1408 19.7534 32.1407C19.1207 32.1405 18.5003 31.966 17.9603 31.6363C17.4203 31.3064 16.9818 30.8341 16.6928 30.2712Z" fill="#CBD5E1"/>
<path d="M24.3828 8.86774L19.894 8.14081L14.3828 9.71092L16.5826 14.2264L21.7339 17.9561C21.8475 18.0374 21.9725 18.0998 22.1044 18.1408L24.061 14.126L24.3828 8.86774Z" fill="#0F172A"/>
<path d="M52.3672 19.676C52.3672 19.3713 52.3203 19.0978 52.2266 18.8557C52.1406 18.6057 51.9766 18.3791 51.7344 18.176C51.4922 17.965 51.1523 17.758 50.7148 17.5549C50.2773 17.3517 49.7109 17.1408 49.0156 16.9221C48.2422 16.6721 47.5078 16.3908 46.8125 16.0783C46.125 15.7658 45.5156 15.4025 44.9844 14.9885C44.4609 14.5666 44.0469 14.0783 43.7422 13.5236C43.4453 12.9689 43.2969 12.3244 43.2969 11.59C43.2969 10.8791 43.4531 10.2346 43.7656 9.65643C44.0781 9.0705 44.5156 8.5705 45.0781 8.15643C45.6406 7.73456 46.3047 7.41034 47.0703 7.18378C47.8438 6.95721 48.6914 6.84393 49.6133 6.84393C50.8711 6.84393 51.9688 7.0705 52.9062 7.52362C53.8438 7.97675 54.5703 8.59784 55.0859 9.3869C55.6094 10.176 55.8711 11.0783 55.8711 12.0939H52.3789C52.3789 11.5939 52.2734 11.1564 52.0625 10.7814C51.8594 10.3986 51.5469 10.0978 51.125 9.87909C50.7109 9.66034 50.1875 9.55096 49.5547 9.55096C48.9453 9.55096 48.4375 9.64471 48.0312 9.83221C47.625 10.0119 47.3203 10.258 47.1172 10.5705C46.9141 10.8752 46.8125 11.2189 46.8125 11.6017C46.8125 11.8908 46.8828 12.1525 47.0234 12.3869C47.1719 12.6213 47.3906 12.84 47.6797 13.0432C47.9688 13.2463 48.3242 13.4377 48.7461 13.6174C49.168 13.7971 49.6562 13.9728 50.2109 14.1447C51.1406 14.426 51.957 14.7424 52.6602 15.0939C53.3711 15.4455 53.9648 15.84 54.4414 16.2775C54.918 16.715 55.2773 17.2111 55.5195 17.7658C55.7617 18.3205 55.8828 18.9494 55.8828 19.6525C55.8828 20.3947 55.7383 21.0588 55.4492 21.6447C55.1602 22.2307 54.7422 22.7267 54.1953 23.133C53.6484 23.5392 52.9961 23.8478 52.2383 24.0588C51.4805 24.2697 50.6328 24.3752 49.6953 24.3752C48.8516 24.3752 48.0195 24.2658 47.1992 24.0471C46.3789 23.8205 45.6328 23.4807 44.9609 23.0275C44.2969 22.5744 43.7656 21.9963 43.3672 21.2932C42.9688 20.59 42.7695 19.758 42.7695 18.7971H46.2969C46.2969 19.3283 46.3789 19.7775 46.543 20.1447C46.707 20.5119 46.9375 20.8088 47.2344 21.0353C47.5391 21.2619 47.8984 21.426 48.3125 21.5275C48.7344 21.6291 49.1953 21.6799 49.6953 21.6799C50.3047 21.6799 50.8047 21.5939 51.1953 21.4221C51.5938 21.2502 51.8867 21.0119 52.0742 20.7072C52.2695 20.4025 52.3672 20.0588 52.3672 19.676ZM61.4375 14.0861V24.1408H58.0508V11.4611H61.2266L61.4375 14.0861ZM60.9688 17.3557H60.0312C60.0312 16.4728 60.1367 15.6603 60.3477 14.9182C60.5664 14.1682 60.8828 13.5197 61.2969 12.9728C61.7188 12.4182 62.2383 11.9885 62.8555 11.6838C63.4727 11.3791 64.1875 11.2267 65 11.2267C65.5625 11.2267 66.0781 11.3127 66.5469 11.4846C67.0156 11.6486 67.418 11.9103 67.7539 12.2697C68.0977 12.6213 68.3633 13.0822 68.5508 13.6525C68.7383 14.215 68.832 14.8908 68.832 15.6799V24.1408H65.457V16.0549C65.457 15.4767 65.3789 15.0314 65.2227 14.7189C65.0664 14.4064 64.8438 14.1877 64.5547 14.0627C64.2734 13.9377 63.9336 13.8752 63.5352 13.8752C63.0977 13.8752 62.7148 13.965 62.3867 14.1447C62.0664 14.3244 61.8008 14.5744 61.5898 14.8947C61.3789 15.2072 61.2227 15.5744 61.1211 15.9963C61.0195 16.4182 60.9688 16.8713 60.9688 17.3557ZM68.5156 16.9689L67.3086 17.1213C67.3086 16.2932 67.4102 15.5236 67.6133 14.8127C67.8242 14.1017 68.1328 13.4767 68.5391 12.9377C68.9531 12.3986 69.4648 11.9807 70.0742 11.6838C70.6836 11.3791 71.3867 11.2267 72.1836 11.2267C72.793 11.2267 73.3477 11.3166 73.8477 11.4963C74.3477 11.6682 74.7734 11.9455 75.125 12.3283C75.4844 12.7033 75.7578 13.1955 75.9453 13.8049C76.1406 14.4142 76.2383 15.1603 76.2383 16.0432V24.1408H72.8516V16.0432C72.8516 15.4572 72.7734 15.0119 72.6172 14.7072C72.4688 14.3947 72.25 14.1799 71.9609 14.0627C71.6797 13.9377 71.3438 13.8752 70.9531 13.8752C70.5469 13.8752 70.1914 13.9572 69.8867 14.1213C69.582 14.2775 69.3281 14.4963 69.125 14.7775C68.9219 15.0588 68.7695 15.3869 68.668 15.7619C68.5664 16.1291 68.5156 16.5314 68.5156 16.9689ZM85.6953 21.2814V15.633C85.6953 15.2267 85.6289 14.8791 85.4961 14.59C85.3633 14.2932 85.1562 14.0627 84.875 13.8986C84.6016 13.7346 84.2461 13.6525 83.8086 13.6525C83.4336 13.6525 83.1094 13.7189 82.8359 13.8517C82.5625 13.9767 82.3516 14.1603 82.2031 14.4025C82.0547 14.6369 81.9805 14.9142 81.9805 15.2346H78.6055C78.6055 14.6955 78.7305 14.1838 78.9805 13.6994C79.2305 13.215 79.5938 12.7892 80.0703 12.4221C80.5469 12.0471 81.1133 11.7541 81.7695 11.5432C82.4336 11.3322 83.1758 11.2267 83.9961 11.2267C84.9805 11.2267 85.8555 11.3908 86.6211 11.7189C87.3867 12.0471 87.9883 12.5392 88.4258 13.1955C88.8711 13.8517 89.0938 14.6721 89.0938 15.6564V21.0822C89.0938 21.7775 89.1367 22.3478 89.2227 22.7932C89.3086 23.2307 89.4336 23.6135 89.5977 23.9416V24.1408H86.1875C86.0234 23.7971 85.8984 23.3674 85.8125 22.8517C85.7344 22.3283 85.6953 21.8049 85.6953 21.2814ZM86.1406 16.4182L86.1641 18.3283H84.2773C83.832 18.3283 83.4453 18.3791 83.1172 18.4807C82.7891 18.5822 82.5195 18.7267 82.3086 18.9142C82.0977 19.0939 81.9414 19.3049 81.8398 19.5471C81.7461 19.7892 81.6992 20.0549 81.6992 20.3439C81.6992 20.633 81.7656 20.8947 81.8984 21.1291C82.0312 21.3557 82.2227 21.5353 82.4727 21.6682C82.7227 21.7932 83.0156 21.8557 83.3516 21.8557C83.8594 21.8557 84.3008 21.7541 84.6758 21.551C85.0508 21.3478 85.3398 21.0978 85.543 20.801C85.7539 20.5041 85.8633 20.2228 85.8711 19.9572L86.7617 21.3869C86.6367 21.7072 86.4648 22.0392 86.2461 22.383C86.0352 22.7267 85.7656 23.051 85.4375 23.3557C85.1094 23.6525 84.7148 23.8986 84.2539 24.0939C83.793 24.2814 83.2461 24.3752 82.6133 24.3752C81.8086 24.3752 81.0781 24.215 80.4219 23.8947C79.7734 23.5666 79.2578 23.1174 78.875 22.5471C78.5 21.9689 78.3125 21.3127 78.3125 20.5783C78.3125 19.9142 78.4375 19.3244 78.6875 18.8088C78.9375 18.2932 79.3047 17.8596 79.7891 17.508C80.2812 17.1486 80.8945 16.8791 81.6289 16.6994C82.3633 16.5119 83.2148 16.4182 84.1836 16.4182H86.1406ZM95.0703 14.2267V24.1408H91.6953V11.4611H94.8711L95.0703 14.2267ZM98.8906 11.3791L98.832 14.508C98.668 14.4846 98.4688 14.465 98.2344 14.4494C98.0078 14.426 97.8008 14.4142 97.6133 14.4142C97.1367 14.4142 96.7227 14.4767 96.3711 14.6017C96.0273 14.7189 95.7383 14.8947 95.5039 15.1291C95.2773 15.3635 95.1055 15.6486 94.9883 15.9846C94.8789 16.3205 94.8164 16.7033 94.8008 17.133L94.1211 16.9221C94.1211 16.1017 94.2031 15.3478 94.3672 14.6603C94.5312 13.965 94.7695 13.3596 95.082 12.8439C95.4023 12.3283 95.793 11.9299 96.2539 11.6486C96.7148 11.3674 97.2422 11.2267 97.8359 11.2267C98.0234 11.2267 98.2148 11.2424 98.4102 11.2736C98.6055 11.2971 98.7656 11.3322 98.8906 11.3791ZM107.281 11.4611V13.8517H99.8984V11.4611H107.281ZM101.727 8.33221H105.102V20.3205C105.102 20.6877 105.148 20.9689 105.242 21.1642C105.344 21.3596 105.492 21.4963 105.688 21.5744C105.883 21.6447 106.129 21.6799 106.426 21.6799C106.637 21.6799 106.824 21.6721 106.988 21.6564C107.16 21.633 107.305 21.6096 107.422 21.5861L107.434 24.0705C107.145 24.1642 106.832 24.2385 106.496 24.2932C106.16 24.3478 105.789 24.3752 105.383 24.3752C104.641 24.3752 103.992 24.2541 103.438 24.0119C102.891 23.7619 102.469 23.3635 102.172 22.8166C101.875 22.2697 101.727 21.551 101.727 20.6603V8.33221ZM112.93 7.07831V24.1408H109.414V7.07831H112.93ZM119.727 14.3674V17.1096H111.969V14.3674H119.727ZM120.547 7.07831V9.83221H111.969V7.07831H120.547ZM125.938 11.4611V24.1408H122.551V11.4611H125.938ZM122.34 8.15643C122.34 7.66425 122.512 7.258 122.855 6.93768C123.199 6.61737 123.66 6.45721 124.238 6.45721C124.809 6.45721 125.266 6.61737 125.609 6.93768C125.961 7.258 126.137 7.66425 126.137 8.15643C126.137 8.64862 125.961 9.05487 125.609 9.37518C125.266 9.6955 124.809 9.85565 124.238 9.85565C123.66 9.85565 123.199 9.6955 122.855 9.37518C122.512 9.05487 122.34 8.64862 122.34 8.15643ZM132.031 14.1682V24.1408H128.656V11.4611H131.82L132.031 14.1682ZM131.539 17.3557H130.625C130.625 16.4182 130.746 15.5744 130.988 14.8244C131.23 14.0666 131.57 13.4221 132.008 12.8908C132.445 12.3517 132.965 11.9416 133.566 11.6603C134.176 11.3713 134.855 11.2267 135.605 11.2267C136.199 11.2267 136.742 11.3127 137.234 11.4846C137.727 11.6564 138.148 11.9299 138.5 12.3049C138.859 12.6799 139.133 13.176 139.32 13.7932C139.516 14.4103 139.613 15.1642 139.613 16.0549V24.1408H136.215V16.0432C136.215 15.4807 136.137 15.0432 135.98 14.7307C135.824 14.4182 135.594 14.1994 135.289 14.0744C134.992 13.9416 134.625 13.8752 134.188 13.8752C133.734 13.8752 133.34 13.965 133.004 14.1447C132.676 14.3244 132.402 14.5744 132.184 14.8947C131.973 15.2072 131.812 15.5744 131.703 15.9963C131.594 16.4182 131.539 16.8713 131.539 17.3557ZM149.668 21.3752V6.14081H153.066V24.1408H150.008L149.668 21.3752ZM141.652 17.9533V17.7072C141.652 16.7385 141.762 15.8596 141.98 15.0705C142.199 14.2736 142.52 13.59 142.941 13.0197C143.363 12.4494 143.883 12.008 144.5 11.6955C145.117 11.383 145.82 11.2267 146.609 11.2267C147.352 11.2267 148 11.383 148.555 11.6955C149.117 12.008 149.594 12.4533 149.984 13.0314C150.383 13.6017 150.703 14.2775 150.945 15.0588C151.188 15.8322 151.363 16.6799 151.473 17.6017V18.1408C151.363 19.0236 151.188 19.8439 150.945 20.6017C150.703 21.3596 150.383 22.0236 149.984 22.5939C149.594 23.1564 149.117 23.5939 148.555 23.9064C147.992 24.2189 147.336 24.3752 146.586 24.3752C145.797 24.3752 145.094 24.215 144.477 23.8947C143.867 23.5744 143.352 23.1252 142.93 22.5471C142.516 21.9689 142.199 21.2892 141.98 20.508C141.762 19.7267 141.652 18.8752 141.652 17.9533ZM145.027 17.7072V17.9533C145.027 18.4767 145.066 18.965 145.145 19.4182C145.23 19.8713 145.367 20.2736 145.555 20.6252C145.75 20.9689 146 21.2385 146.305 21.4338C146.617 21.6213 146.996 21.715 147.441 21.715C148.02 21.715 148.496 21.5861 148.871 21.3283C149.246 21.0627 149.531 20.6994 149.727 20.2385C149.93 19.7775 150.047 19.2463 150.078 18.6447V17.1096C150.055 16.6174 149.984 16.176 149.867 15.7853C149.758 15.3869 149.594 15.0471 149.375 14.7658C149.164 14.4846 148.898 14.2658 148.578 14.1096C148.266 13.9533 147.895 13.8752 147.465 13.8752C147.027 13.8752 146.652 13.9767 146.34 14.1799C146.027 14.3752 145.773 14.6447 145.578 14.9885C145.391 15.3322 145.25 15.7385 145.156 16.2072C145.07 16.6682 145.027 17.1682 145.027 17.7072ZM161.539 24.3752C160.555 24.3752 159.672 24.2189 158.891 23.9064C158.109 23.5861 157.445 23.1447 156.898 22.5822C156.359 22.0197 155.945 21.3674 155.656 20.6252C155.367 19.8752 155.223 19.0783 155.223 18.2346V17.7658C155.223 16.8049 155.359 15.926 155.633 15.1291C155.906 14.3322 156.297 13.6408 156.805 13.0549C157.32 12.4689 157.945 12.0197 158.68 11.7072C159.414 11.3869 160.242 11.2267 161.164 11.2267C162.062 11.2267 162.859 11.3752 163.555 11.6721C164.25 11.9689 164.832 12.3908 165.301 12.9377C165.777 13.4846 166.137 14.1408 166.379 14.9064C166.621 15.6642 166.742 16.508 166.742 17.4377V18.8439H156.664V16.5939H163.426V16.3361C163.426 15.8674 163.34 15.4494 163.168 15.0822C163.004 14.7072 162.754 14.4103 162.418 14.1916C162.082 13.9728 161.652 13.8635 161.129 13.8635C160.684 13.8635 160.301 13.9611 159.98 14.1564C159.66 14.3517 159.398 14.6252 159.195 14.9767C159 15.3283 158.852 15.7424 158.75 16.2189C158.656 16.6877 158.609 17.2033 158.609 17.7658V18.2346C158.609 18.7424 158.68 19.2111 158.82 19.6408C158.969 20.0705 159.176 20.4416 159.441 20.7541C159.715 21.0666 160.043 21.3088 160.426 21.4807C160.816 21.6525 161.258 21.7385 161.75 21.7385C162.359 21.7385 162.926 21.6213 163.449 21.3869C163.98 21.1447 164.438 20.7814 164.82 20.2971L166.461 22.0783C166.195 22.4611 165.832 22.8283 165.371 23.1799C164.918 23.5314 164.371 23.8205 163.73 24.0471C163.09 24.2658 162.359 24.3752 161.539 24.3752ZM172.039 14.2267V24.1408H168.664V11.4611H171.84L172.039 14.2267ZM175.859 11.3791L175.801 14.508C175.637 14.4846 175.438 14.465 175.203 14.4494C174.977 14.426 174.77 14.4142 174.582 14.4142C174.105 14.4142 173.691 14.4767 173.34 14.6017C172.996 14.7189 172.707 14.8947 172.473 15.1291C172.246 15.3635 172.074 15.6486 171.957 15.9846C171.848 16.3205 171.785 16.7033 171.77 17.133L171.09 16.9221C171.09 16.1017 171.172 15.3478 171.336 14.6603C171.5 13.965 171.738 13.3596 172.051 12.8439C172.371 12.3283 172.762 11.9299 173.223 11.6486C173.684 11.3674 174.211 11.2267 174.805 11.2267C174.992 11.2267 175.184 11.2424 175.379 11.2736C175.574 11.2971 175.734 11.3322 175.859 11.3791Z" fill="#CBD5E1"/>
</svg>
