<svg width="110" height="33" viewBox="0 0 110 33" fill="none" xmlns="http://www.w3.org/2000/svg">
<path d="M10.1669 20.1226V28.2433C10.1669 28.5547 10.0432 28.8532 9.82306 29.0732C9.60303 29.2934 9.30448 29.417 8.99313 29.417C8.68189 29.417 8.38334 29.2934 8.1632 29.0732C7.94305 28.8532 7.81938 28.5547 7.81938 28.2433V20.1338C8.14624 20.3725 8.53801 20.5057 8.94258 20.5157C9.38355 20.5283 9.81565 20.3895 10.1669 20.1226ZM20.1634 17.7751C19.8655 17.7751 19.5797 17.8935 19.3691 18.1041C19.1585 18.3147 19.0402 18.6004 19.0402 18.8983V20.3135C19.0402 20.6249 19.1638 20.9234 19.384 21.1434C19.604 21.3636 19.9026 21.4872 20.2139 21.4872C20.5253 21.4872 20.8238 21.3636 21.0438 21.1434C21.264 20.9234 21.3877 20.6249 21.3877 20.3135V18.9544C21.3964 18.7934 21.3704 18.6323 21.3113 18.4822C21.2522 18.3322 21.1616 18.1965 21.0453 18.0846C20.9292 17.9727 20.7902 17.8872 20.6381 17.8337C20.4859 17.7803 20.324 17.7604 20.1634 17.7751ZM5.26972 23.2001C4.86556 23.188 4.4743 23.055 4.14652 22.8182V30.9614C4.14652 31.2743 4.27076 31.5743 4.49194 31.7954C4.71311 32.0166 5.01309 32.1408 5.32588 32.1408C5.63867 32.1408 5.93864 32.0166 6.15981 31.7954C6.38099 31.5743 6.50524 31.2743 6.50524 30.9614V22.8744C6.13846 23.1115 5.7057 23.2256 5.26972 23.2001ZM16.5017 15.3377C16.3495 15.3301 16.1975 15.3536 16.0546 15.4066C15.9118 15.4596 15.7813 15.5411 15.6709 15.6462C15.5606 15.7513 15.4729 15.8776 15.4129 16.0177C15.353 16.1578 15.3221 16.3086 15.3224 16.4609V22.7172C15.3224 23.03 15.4466 23.33 15.6678 23.5511C15.889 23.7723 16.1889 23.8965 16.5017 23.8965C16.8145 23.8965 17.1145 23.7723 17.3357 23.5511C17.5569 23.33 17.6811 23.03 17.6811 22.7172V16.5395C17.6901 16.3775 17.6638 16.2154 17.604 16.0644C17.5443 15.9135 17.4526 15.7772 17.3351 15.6651C17.2177 15.553 17.0774 15.4677 16.9238 15.4151C16.7703 15.3624 16.6071 15.3437 16.4456 15.3602L16.5017 15.3377ZM12.7727 17.7414C12.3496 17.7384 11.9378 17.6051 11.5933 17.3595V25.5252C11.5933 25.838 11.7176 26.138 11.9387 26.3591C12.16 26.5803 12.4599 26.7045 12.7727 26.7045C13.0855 26.7045 13.3854 26.5803 13.6067 26.3591C13.8278 26.138 13.9521 25.838 13.9521 25.5252V17.3707C13.5958 17.6361 13.1608 17.7745 12.7165 17.7638L12.7727 17.7414ZM2.72005 23.9976V1.18539C2.7171 0.907314 2.60455 0.641655 2.40687 0.446072C2.20918 0.250489 1.94232 0.140797 1.66424 0.140808H1.41714C1.13906 0.140797 0.872194 0.250489 0.67451 0.446072C0.476827 0.641655 0.364282 0.907314 0.361328 1.18539V23.9976C0.361328 24.2776 0.47257 24.5462 0.670568 24.7442C0.868566 24.9422 1.13712 25.0534 1.41714 25.0534H1.66424C1.94427 25.0534 2.21281 24.9422 2.41081 24.7442C2.60882 24.5462 2.72005 24.2776 2.72005 23.9976ZM5.39327 22.3353H5.14617C4.86615 22.3353 4.59759 22.2241 4.3996 22.026C4.2016 21.828 4.09036 21.5595 4.09036 21.2795V3.90353C4.09332 3.62547 4.20585 3.35979 4.40354 3.16422C4.60122 2.96864 4.86808 2.85894 5.14617 2.85895H5.39327C5.67135 2.85894 5.93821 2.96864 6.1359 3.16422C6.33358 3.35979 6.44612 3.62547 6.44908 3.90353V21.3019C6.44908 21.5819 6.33784 21.8505 6.13984 22.0485C5.94184 22.2465 5.67328 22.3577 5.39327 22.3577V22.3353ZM9.11106 19.662H8.85273C8.57575 19.662 8.31 19.552 8.11411 19.3561C7.91823 19.1602 7.80815 18.8946 7.80815 18.6175V6.59921C7.80669 6.46109 7.83264 6.32405 7.88442 6.19602C7.9362 6.06799 8.01291 5.95151 8.11007 5.85332C8.20722 5.75513 8.32292 5.67718 8.4504 5.62398C8.57788 5.57079 8.71458 5.54339 8.85273 5.54341H9.11106C9.38917 5.54637 9.65481 5.6589 9.85036 5.85659C10.046 6.05427 10.1556 6.32113 10.1556 6.59921V18.6175C10.1556 18.8946 10.0456 19.1602 9.84968 19.3561C9.6538 19.552 9.38816 19.662 9.11106 19.662ZM12.8289 16.9102H12.593C12.3149 16.9102 12.048 16.8006 11.8503 16.6049C11.6526 16.4094 11.5401 16.1437 11.5372 15.8656V9.39599C11.528 9.25177 11.5484 9.10721 11.5974 8.97119C11.6462 8.83528 11.7226 8.71072 11.8216 8.60548C11.9205 8.50012 12.04 8.41633 12.1728 8.35905C12.3054 8.30188 12.4484 8.27245 12.593 8.27278H12.8401C13.1201 8.27278 13.3887 8.38398 13.5867 8.582C13.7847 8.78002 13.8959 9.04858 13.8959 9.32859V15.8432C13.8974 15.9828 13.8712 16.1213 13.8187 16.2507C13.7664 16.3801 13.6889 16.4978 13.5906 16.5971C13.4924 16.6962 13.3756 16.775 13.2467 16.8288C13.1179 16.8826 12.9797 16.9102 12.8401 16.9102H12.8289ZM16.5579 14.4953H16.3108C16.0308 14.4953 15.7622 14.3841 15.5642 14.1861C15.3662 13.9881 15.255 13.7195 15.255 13.4395V11.7659C15.2579 11.4878 15.3704 11.2222 15.5681 11.0266C15.7658 10.831 16.0327 10.7214 16.3108 10.7214H16.5579C16.836 10.7214 17.1029 10.831 17.3005 11.0266C17.4982 11.2222 17.6108 11.4878 17.6137 11.7659V13.4395C17.6137 13.7176 17.5041 13.9845 17.3084 14.1822C17.1129 14.3799 16.8472 14.4924 16.5691 14.4953H16.5579Z" fill="#CBD5E1"/>
<path d="M35.0254 21.4338L38.4238 7.07831H40.3223L40.7559 9.46893L37.1348 24.1408H35.0957L35.0254 21.4338ZM33.2793 7.07831L36.0918 21.4338L35.8574 24.1408H33.584L29.7988 7.07831H33.2793ZM43.7441 21.3752L46.5215 7.07831H50.002L46.2285 24.1408H43.9551L43.7441 21.3752ZM41.3887 7.07831L44.8105 21.4924L44.7168 24.1408H42.6777L39.0332 9.45721L39.502 7.07831H41.3887ZM58.334 9.99628L53.6934 24.1408H49.9551L56.2949 7.07831H58.6738L58.334 9.99628ZM62.1895 24.1408L57.5371 9.99628L57.1621 7.07831H59.5645L65.9395 24.1408H62.1895ZM61.9785 17.7892V20.5432H52.9668V17.7892H61.9785ZM72.7129 20.5783L76.7324 7.07831H80.6465L74.7051 24.1408H72.127L72.7129 20.5783ZM69.0098 7.07831L73.0176 20.5783L73.627 24.1408H71.0254L65.1191 7.07831H69.0098ZM93.6895 21.3986V24.1408H84.6074V21.3986H93.6895ZM85.7559 7.07831V24.1408H82.2402V7.07831H85.7559ZM92.5059 14.0275V16.6994H84.6074V14.0275H92.5059ZM93.6777 7.07831V9.83221H84.6074V7.07831H93.6777ZM104.623 19.676C104.623 19.3713 104.576 19.0978 104.482 18.8557C104.396 18.6057 104.232 18.3791 103.99 18.176C103.748 17.965 103.408 17.758 102.971 17.5549C102.533 17.3517 101.967 17.1408 101.271 16.9221C100.498 16.6721 99.7637 16.3908 99.0684 16.0783C98.3809 15.7658 97.7715 15.4025 97.2402 14.9885C96.7168 14.5666 96.3027 14.0783 95.998 13.5236C95.7012 12.9689 95.5527 12.3244 95.5527 11.59C95.5527 10.8791 95.709 10.2346 96.0215 9.65643C96.334 9.0705 96.7715 8.5705 97.334 8.15643C97.8965 7.73456 98.5605 7.41034 99.3262 7.18378C100.1 6.95721 100.947 6.84393 101.869 6.84393C103.127 6.84393 104.225 7.0705 105.162 7.52362C106.1 7.97675 106.826 8.59784 107.342 9.3869C107.865 10.176 108.127 11.0783 108.127 12.0939H104.635C104.635 11.5939 104.529 11.1564 104.318 10.7814C104.115 10.3986 103.803 10.0978 103.381 9.87909C102.967 9.66034 102.443 9.55096 101.811 9.55096C101.201 9.55096 100.693 9.64471 100.287 9.83221C99.8809 10.0119 99.5762 10.258 99.373 10.5705C99.1699 10.8752 99.0684 11.2189 99.0684 11.6017C99.0684 11.8908 99.1387 12.1525 99.2793 12.3869C99.4277 12.6213 99.6465 12.84 99.9355 13.0432C100.225 13.2463 100.58 13.4377 101.002 13.6174C101.424 13.7971 101.912 13.9728 102.467 14.1447C103.396 14.426 104.213 14.7424 104.916 15.0939C105.627 15.4455 106.221 15.84 106.697 16.2775C107.174 16.715 107.533 17.2111 107.775 17.7658C108.018 18.3205 108.139 18.9494 108.139 19.6525C108.139 20.3947 107.994 21.0588 107.705 21.6447C107.416 22.2307 106.998 22.7267 106.451 23.133C105.904 23.5392 105.252 23.8478 104.494 24.0588C103.736 24.2697 102.889 24.3752 101.951 24.3752C101.107 24.3752 100.275 24.2658 99.4551 24.0471C98.6348 23.8205 97.8887 23.4807 97.2168 23.0275C96.5527 22.5744 96.0215 21.9963 95.623 21.2932C95.2246 20.59 95.0254 19.758 95.0254 18.7971H98.5527C98.5527 19.3283 98.6348 19.7775 98.7988 20.1447C98.9629 20.5119 99.1934 20.8088 99.4902 21.0353C99.7949 21.2619 100.154 21.426 100.568 21.5275C100.99 21.6291 101.451 21.6799 101.951 21.6799C102.561 21.6799 103.061 21.5939 103.451 21.4221C103.85 21.2502 104.143 21.0119 104.33 20.7072C104.525 20.4025 104.623 20.0588 104.623 19.676Z" fill="#CBD5E1"/>
</svg>
