<svg width="134" height="33" viewBox="0 0 134 33" fill="none" xmlns="http://www.w3.org/2000/svg">
<path fill-rule="evenodd" clip-rule="evenodd" d="M16.961 32.1408C25.7975 32.1408 32.961 24.9774 32.961 16.1408C32.961 7.30426 25.7975 0.140808 16.961 0.140808C8.12437 0.140808 0.960938 7.30426 0.960938 16.1408C0.960938 24.9774 8.12437 32.1408 16.961 32.1408ZM21.9524 7.59429C22.1954 6.73125 21.3578 6.22092 20.593 6.76585L9.91544 14.3725C9.08592 14.9634 9.2164 16.1408 10.1114 16.1408H12.9231V16.119H18.403L13.9379 17.6945L11.9695 24.6874C11.7266 25.5504 12.564 26.0607 13.329 25.5158L24.0065 17.9092C24.836 17.3182 24.7054 16.1408 23.8105 16.1408H19.5466L21.9524 7.59429Z" fill="#CBD5E1"/>
<path d="M54.8242 21.3986V24.1408H42.7305V21.3986H54.8242ZM54.6484 9.03534L44.2891 24.1408H41.8164V22.1252L52.2578 7.07831H54.6484V9.03534ZM53.4414 7.07831V9.83221H41.8281V7.07831H53.4414ZM56.0547 17.9299V17.6838C56.0547 16.7541 56.1875 15.8986 56.4531 15.1174C56.7188 14.3283 57.1055 13.6447 57.6133 13.0666C58.1211 12.4885 58.7461 12.0392 59.4883 11.7189C60.2305 11.3908 61.082 11.2267 62.043 11.2267C63.0039 11.2267 63.8594 11.3908 64.6094 11.7189C65.3594 12.0392 65.9883 12.4885 66.4961 13.0666C67.0117 13.6447 67.4023 14.3283 67.668 15.1174C67.9336 15.8986 68.0664 16.7541 68.0664 17.6838V17.9299C68.0664 18.8517 67.9336 19.7072 67.668 20.4963C67.4023 21.2775 67.0117 21.9611 66.4961 22.5471C65.9883 23.1252 65.3633 23.5744 64.6211 23.8947C63.8789 24.215 63.0273 24.3752 62.0664 24.3752C61.1055 24.3752 60.25 24.215 59.5 23.8947C58.7578 23.5744 58.1289 23.1252 57.6133 22.5471C57.1055 21.9611 56.7188 21.2775 56.4531 20.4963C56.1875 19.7072 56.0547 18.8517 56.0547 17.9299ZM59.4297 17.6838V17.9299C59.4297 18.4611 59.4766 18.9572 59.5703 19.4182C59.6641 19.8791 59.8125 20.2853 60.0156 20.6369C60.2266 20.9807 60.5 21.2502 60.8359 21.4455C61.1719 21.6408 61.582 21.7385 62.0664 21.7385C62.5352 21.7385 62.9375 21.6408 63.2734 21.4455C63.6094 21.2502 63.8789 20.9807 64.082 20.6369C64.2852 20.2853 64.4336 19.8791 64.5273 19.4182C64.6289 18.9572 64.6797 18.4611 64.6797 17.9299V17.6838C64.6797 17.1682 64.6289 16.6838 64.5273 16.2307C64.4336 15.7697 64.2812 15.3635 64.0703 15.0119C63.8672 14.6525 63.5977 14.3713 63.2617 14.1682C62.9258 13.965 62.5195 13.8635 62.043 13.8635C61.5664 13.8635 61.1602 13.965 60.8242 14.1682C60.4961 14.3713 60.2266 14.6525 60.0156 15.0119C59.8125 15.3635 59.6641 15.7697 59.5703 16.2307C59.4766 16.6838 59.4297 17.1682 59.4297 17.6838ZM69.6016 17.9299V17.6838C69.6016 16.7541 69.7344 15.8986 70 15.1174C70.2656 14.3283 70.6523 13.6447 71.1602 13.0666C71.668 12.4885 72.293 12.0392 73.0352 11.7189C73.7773 11.3908 74.6289 11.2267 75.5898 11.2267C76.5508 11.2267 77.4062 11.3908 78.1562 11.7189C78.9062 12.0392 79.5352 12.4885 80.043 13.0666C80.5586 13.6447 80.9492 14.3283 81.2148 15.1174C81.4805 15.8986 81.6133 16.7541 81.6133 17.6838V17.9299C81.6133 18.8517 81.4805 19.7072 81.2148 20.4963C80.9492 21.2775 80.5586 21.9611 80.043 22.5471C79.5352 23.1252 78.9102 23.5744 78.168 23.8947C77.4258 24.215 76.5742 24.3752 75.6133 24.3752C74.6523 24.3752 73.7969 24.215 73.0469 23.8947C72.3047 23.5744 71.6758 23.1252 71.1602 22.5471C70.6523 21.9611 70.2656 21.2775 70 20.4963C69.7344 19.7072 69.6016 18.8517 69.6016 17.9299ZM72.9766 17.6838V17.9299C72.9766 18.4611 73.0234 18.9572 73.1172 19.4182C73.2109 19.8791 73.3594 20.2853 73.5625 20.6369C73.7734 20.9807 74.0469 21.2502 74.3828 21.4455C74.7188 21.6408 75.1289 21.7385 75.6133 21.7385C76.082 21.7385 76.4844 21.6408 76.8203 21.4455C77.1562 21.2502 77.4258 20.9807 77.6289 20.6369C77.832 20.2853 77.9805 19.8791 78.0742 19.4182C78.1758 18.9572 78.2266 18.4611 78.2266 17.9299V17.6838C78.2266 17.1682 78.1758 16.6838 78.0742 16.2307C77.9805 15.7697 77.8281 15.3635 77.6172 15.0119C77.4141 14.6525 77.1445 14.3713 76.8086 14.1682C76.4727 13.965 76.0664 13.8635 75.5898 13.8635C75.1133 13.8635 74.707 13.965 74.3711 14.1682C74.043 14.3713 73.7734 14.6525 73.5625 15.0119C73.3594 15.3635 73.2109 15.7697 73.1172 16.2307C73.0234 16.6838 72.9766 17.1682 72.9766 17.6838ZM87.0625 14.0861V24.1408H83.6758V11.4611H86.8516L87.0625 14.0861ZM86.5938 17.3557H85.6562C85.6562 16.4728 85.7617 15.6603 85.9727 14.9182C86.1914 14.1682 86.5078 13.5197 86.9219 12.9728C87.3438 12.4182 87.8633 11.9885 88.4805 11.6838C89.0977 11.3791 89.8125 11.2267 90.625 11.2267C91.1875 11.2267 91.7031 11.3127 92.1719 11.4846C92.6406 11.6486 93.043 11.9103 93.3789 12.2697C93.7227 12.6213 93.9883 13.0822 94.1758 13.6525C94.3633 14.215 94.457 14.8908 94.457 15.6799V24.1408H91.082V16.0549C91.082 15.4767 91.0039 15.0314 90.8477 14.7189C90.6914 14.4064 90.4688 14.1877 90.1797 14.0627C89.8984 13.9377 89.5586 13.8752 89.1602 13.8752C88.7227 13.8752 88.3398 13.965 88.0117 14.1447C87.6914 14.3244 87.4258 14.5744 87.2148 14.8947C87.0039 15.2072 86.8477 15.5744 86.7461 15.9963C86.6445 16.4182 86.5938 16.8713 86.5938 17.3557ZM94.1406 16.9689L92.9336 17.1213C92.9336 16.2932 93.0352 15.5236 93.2383 14.8127C93.4492 14.1017 93.7578 13.4767 94.1641 12.9377C94.5781 12.3986 95.0898 11.9807 95.6992 11.6838C96.3086 11.3791 97.0117 11.2267 97.8086 11.2267C98.418 11.2267 98.9727 11.3166 99.4727 11.4963C99.9727 11.6682 100.398 11.9455 100.75 12.3283C101.109 12.7033 101.383 13.1955 101.57 13.8049C101.766 14.4142 101.863 15.1603 101.863 16.0432V24.1408H98.4766V16.0432C98.4766 15.4572 98.3984 15.0119 98.2422 14.7072C98.0938 14.3947 97.875 14.1799 97.5859 14.0627C97.3047 13.9377 96.9688 13.8752 96.5781 13.8752C96.1719 13.8752 95.8164 13.9572 95.5117 14.1213C95.207 14.2775 94.9531 14.4963 94.75 14.7775C94.5469 15.0588 94.3945 15.3869 94.293 15.7619C94.1914 16.1291 94.1406 16.5314 94.1406 16.9689ZM110.312 24.3752C109.328 24.3752 108.445 24.2189 107.664 23.9064C106.883 23.5861 106.219 23.1447 105.672 22.5822C105.133 22.0197 104.719 21.3674 104.43 20.6252C104.141 19.8752 103.996 19.0783 103.996 18.2346V17.7658C103.996 16.8049 104.133 15.926 104.406 15.1291C104.68 14.3322 105.07 13.6408 105.578 13.0549C106.094 12.4689 106.719 12.0197 107.453 11.7072C108.188 11.3869 109.016 11.2267 109.938 11.2267C110.836 11.2267 111.633 11.3752 112.328 11.6721C113.023 11.9689 113.605 12.3908 114.074 12.9377C114.551 13.4846 114.91 14.1408 115.152 14.9064C115.395 15.6642 115.516 16.508 115.516 17.4377V18.8439H105.438V16.5939H112.199V16.3361C112.199 15.8674 112.113 15.4494 111.941 15.0822C111.777 14.7072 111.527 14.4103 111.191 14.1916C110.855 13.9728 110.426 13.8635 109.902 13.8635C109.457 13.8635 109.074 13.9611 108.754 14.1564C108.434 14.3517 108.172 14.6252 107.969 14.9767C107.773 15.3283 107.625 15.7424 107.523 16.2189C107.43 16.6877 107.383 17.2033 107.383 17.7658V18.2346C107.383 18.7424 107.453 19.2111 107.594 19.6408C107.742 20.0705 107.949 20.4416 108.215 20.7541C108.488 21.0666 108.816 21.3088 109.199 21.4807C109.59 21.6525 110.031 21.7385 110.523 21.7385C111.133 21.7385 111.699 21.6213 112.223 21.3869C112.754 21.1447 113.211 20.7814 113.594 20.2971L115.234 22.0783C114.969 22.4611 114.605 22.8283 114.145 23.1799C113.691 23.5314 113.145 23.8205 112.504 24.0471C111.863 24.2658 111.133 24.3752 110.312 24.3752ZM120.812 14.2267V24.1408H117.438V11.4611H120.613L120.812 14.2267ZM124.633 11.3791L124.574 14.508C124.41 14.4846 124.211 14.465 123.977 14.4494C123.75 14.426 123.543 14.4142 123.355 14.4142C122.879 14.4142 122.465 14.4767 122.113 14.6017C121.77 14.7189 121.48 14.8947 121.246 15.1291C121.02 15.3635 120.848 15.6486 120.73 15.9846C120.621 16.3205 120.559 16.7033 120.543 17.133L119.863 16.9221C119.863 16.1017 119.945 15.3478 120.109 14.6603C120.273 13.965 120.512 13.3596 120.824 12.8439C121.145 12.3283 121.535 11.9299 121.996 11.6486C122.457 11.3674 122.984 11.2267 123.578 11.2267C123.766 11.2267 123.957 11.2424 124.152 11.2736C124.348 11.2971 124.508 11.3322 124.633 11.3791ZM129.602 14.2267V24.1408H126.227V11.4611H129.402L129.602 14.2267ZM133.422 11.3791L133.363 14.508C133.199 14.4846 133 14.465 132.766 14.4494C132.539 14.426 132.332 14.4142 132.145 14.4142C131.668 14.4142 131.254 14.4767 130.902 14.6017C130.559 14.7189 130.27 14.8947 130.035 15.1291C129.809 15.3635 129.637 15.6486 129.52 15.9846C129.41 16.3205 129.348 16.7033 129.332 17.133L128.652 16.9221C128.652 16.1017 128.734 15.3478 128.898 14.6603C129.062 13.965 129.301 13.3596 129.613 12.8439C129.934 12.3283 130.324 11.9299 130.785 11.6486C131.246 11.3674 131.773 11.2267 132.367 11.2267C132.555 11.2267 132.746 11.2424 132.941 11.2736C133.137 11.2971 133.297 11.3322 133.422 11.3791Z" fill="#CBD5E1"/>
</svg>
